<?xml version="1.0" encoding="UTF-8" standalone="no"?>
<!DOCTYPE svg PUBLIC "-//W3C//DTD SVG 1.1//EN" "http://www.w3.org/Graphics/SVG/1.1/DTD/svg11.dtd">
<svg width="100%" height="100%" viewBox="0 0 702 753" version="1.1" xmlns="http://www.w3.org/2000/svg" xmlns:xlink="http://www.w3.org/1999/xlink" xml:space="preserve" xmlns:serif="http://www.serif.com/" style="fill-rule:evenodd;clip-rule:evenodd;stroke-linejoin:round;stroke-miterlimit:2;">
    <g transform="matrix(1,0,0,1,-2653.339582,-1478.224088)">
        <g transform="matrix(7.008077,0,0,7.008077,-560.052897,860.666745)">
            <path d="M458.527,88.121C462.69,89.844 481.827,97.504 484.295,99.454C490.541,104.387 504.242,124.073 508.946,131.176C515.49,122.43 522.388,112.63 528.847,103.983C532.905,98.55 550.669,92.06 557.805,88.973C545.13,106.605 530.249,124.449 518.03,142.023C527.56,154.964 537.219,167.81 547.005,180.558C550.398,185.016 555.827,191.108 558.669,195.442C549.44,190.81 542.229,188.024 532.511,184.379C524.747,173.449 516.408,163.184 508.537,152.421C500.288,163.049 492.715,173.887 484.683,184.332C477.454,187.186 469.719,190.113 462.623,193.191C461.312,193.86 460.948,194.199 459.487,194.251L459.378,193.537L461.005,191.573L484.178,161.427C488.799,155.341 494.672,147.129 499.587,141.529C487.021,123.979 471.665,105.793 458.527,88.121ZM508.711,132.834C505.61,136.807 505.013,138.227 501.18,141.761C502.537,143.326 507.401,151.125 508.85,150.69C511.706,146.542 513.043,145.256 516.728,141.966C512.914,138.27 511.505,135.733 508.711,132.834Z" style="fill:rgb(13,213,249);"/>
        </g>
    </g>
</svg>
