<?xml version="1.0" encoding="UTF-8" standalone="no"?>
<!DOCTYPE svg PUBLIC "-//W3C//DTD SVG 1.1//EN" "http://www.w3.org/Graphics/SVG/1.1/DTD/svg11.dtd">
<svg width="100%" height="100%" viewBox="0 0 3203 753" version="1.1" xmlns="http://www.w3.org/2000/svg" xmlns:xlink="http://www.w3.org/1999/xlink" xml:space="preserve" xmlns:serif="http://www.serif.com/" style="fill-rule:evenodd;clip-rule:evenodd;stroke-linejoin:round;stroke-miterlimit:2;">
    <g transform="matrix(1,0,0,1,-152.731597,-1478.224088)">
        <g transform="matrix(7.008077,0,0,7.008077,-560.052897,860.666745)">
            <path d="M196.095,117.647C204.536,117.133 230.805,116.126 238.415,120.212C241.147,121.687 244.894,127.758 244.849,130.771C244.596,147.489 251.603,167.756 229.619,170.872C220.518,171.305 194.412,172.357 187.432,168.403C183.879,166.39 181.673,163.167 180.677,159.244C179.278,153.731 179.386,136.801 180.51,131.067C180.929,128.928 181.728,126.8 182.936,124.979C186.025,120.321 190.864,118.627 196.095,117.647ZM197.113,125.671C196.573,125.771 196.027,125.858 195.488,125.966C193.211,126.421 191.369,127.606 190.13,129.573C189.347,130.817 188.801,132.291 188.599,133.749C188.094,137.41 187.868,153.107 188.769,156.352C189.384,158.568 190.922,160.57 193.007,161.59C196.563,163.329 222.98,162.449 228.781,162.415C229.438,162.275 230.097,162.154 230.754,162.019C232.579,161.644 234.484,160.61 235.515,159.01C237.492,155.943 237.48,135.567 236.525,131.491C236.095,129.66 234.769,128.165 233.19,127.191C228.773,124.467 203.599,125.482 197.113,125.671Z" style="fill:rgb(254,254,254);"/>
        </g>
        <g transform="matrix(7.008077,0,0,7.008077,-560.052897,860.666745)">
            <path d="M458.527,88.121C462.69,89.844 481.827,97.504 484.295,99.454C490.541,104.387 504.242,124.073 508.946,131.176C515.49,122.43 522.388,112.63 528.847,103.983C532.905,98.55 550.669,92.06 557.805,88.973C545.13,106.605 530.249,124.449 518.03,142.023C527.56,154.964 537.219,167.81 547.005,180.558C550.398,185.016 555.827,191.108 558.669,195.442C549.44,190.81 542.229,188.024 532.511,184.379C524.747,173.449 516.408,163.184 508.537,152.421C500.288,163.049 492.715,173.887 484.683,184.332C477.454,187.186 469.719,190.113 462.623,193.191C461.312,193.86 460.948,194.199 459.487,194.251L459.378,193.537L461.005,191.573L484.178,161.427C488.799,155.341 494.672,147.129 499.587,141.529C487.021,123.979 471.665,105.793 458.527,88.121ZM508.711,132.834C505.61,136.807 505.013,138.227 501.18,141.761C502.537,143.326 507.401,151.125 508.85,150.69C511.706,146.542 513.043,145.256 516.728,141.966C512.914,138.27 511.505,135.733 508.711,132.834Z" style="fill:rgb(13,213,249);"/>
        </g>
        <g transform="matrix(7.008077,0,0,7.008077,-560.052897,860.666745)">
            <path d="M271.312,117.6C271.665,117.575 272.02,117.554 272.374,117.537C282.773,117.117 296.293,117.029 306.74,117.932C315.699,118.708 316.794,125.249 317.004,133.002C313.951,133.124 310.891,133.909 308.864,131.433C308.861,127.113 307.149,125.702 302.66,125.597C292.819,125.368 282.756,125.571 272.931,125.798C270.799,125.848 267.733,128.635 267.591,130.731C266.051,141.573 273.544,138.696 279.747,139.783C291.625,141.865 320.245,136.262 319.347,154.677C318.841,165.063 315.045,169.665 305.064,170.649C294.418,170.878 280.783,171.427 270.169,170.349C260.961,169.414 259.318,163.682 259.402,155.434L266.782,155.532C266.854,156.257 266.948,156.98 267.063,157.699C267.304,159.12 267.838,160.401 269.136,161.194C272.755,163.405 302.796,163.17 307.439,161.77C308.794,161.361 309.781,160.281 310.39,159.034C311.356,157.056 311.831,153.772 310.74,151.749C308.028,146.721 275.537,148.977 266.986,145.675C263.851,144.464 261.078,142.27 259.819,139.081C258.11,134.752 259.056,128.824 260.991,124.713C262.893,120.669 267.319,118.854 271.312,117.6Z" style="fill:rgb(254,254,254);fill-rule:nonzero;"/>
        </g>
        <g transform="matrix(7.008077,0,0,7.008077,-560.052897,860.666745)">
            <path d="M401.518,117.494C420.014,117.168 439.631,117.312 458.149,117.425L458.076,125.483L409.961,125.498L409.811,162.817L418.871,162.785C432.44,162.704 446.009,162.707 459.578,162.794L459.557,170.585L401.634,170.514C401.222,153.243 401.527,134.851 401.518,117.494Z" style="fill:rgb(254,254,254);fill-rule:nonzero;"/>
        </g>
        <g transform="matrix(7.008077,0,0,7.008077,-560.052897,860.666745)">
            <path d="M101.709,117.976L111.264,118.07C119.506,131.237 129.008,149.01 136.778,162.801C144.773,147.709 153.205,132.854 162.065,118.254L171.156,118.313L167.935,123.774C159.833,139.135 149.98,155.326 141.345,170.599C138.477,170.817 135.567,170.782 132.687,170.802C122.411,155.47 111.572,134.438 101.709,117.976Z" style="fill:rgb(254,254,254);fill-rule:nonzero;"/>
        </g>
        <g transform="matrix(7.008077,0,0,7.008077,-560.052897,860.666745)">
            <path d="M326.98,117.504L389.511,117.486L389.504,125.583L362.371,125.527L362.275,144.125L362.399,170.362L354.471,170.353C354.021,155.885 354.34,140.089 354.388,125.514L326.999,125.505L326.98,117.504Z" style="fill:rgb(254,254,254);fill-rule:nonzero;"/>
        </g>
        <g transform="matrix(7.008077,0,0,7.008077,-560.052897,860.666745)">
            <path d="M413.99,139.643C425.252,139.589 437.748,139.614 448.97,139.881C448.996,142.391 448.993,144.902 448.962,147.412C437.401,147.489 425.537,147.521 413.992,147.384C413.966,144.804 413.966,142.223 413.99,139.643Z" style="fill:rgb(254,254,254);fill-rule:nonzero;"/>
        </g>
    </g>
</svg>
