<?xml version="1.0" encoding="UTF-8" standalone="no"?>
<!DOCTYPE svg PUBLIC "-//W3C//DTD SVG 1.1//EN" "http://www.w3.org/Graphics/SVG/1.1/DTD/svg11.dtd">
<svg width="100%" height="100%" viewBox="0 0 3217 744" version="1.1" xmlns="http://www.w3.org/2000/svg" xmlns:xlink="http://www.w3.org/1999/xlink" xml:space="preserve" xmlns:serif="http://www.serif.com/" style="fill-rule:evenodd;clip-rule:evenodd;stroke-linejoin:round;stroke-miterlimit:2;">
    <g transform="matrix(1,0,0,1,-145.772767,-536.402491)">
        <g transform="matrix(7.010688,0,0,7.010688,-564.900696,-3655.063645)">
            <path d="M194.339,631.659C203.459,631.38 230.132,629.838 237.193,634.177C240.607,636.275 242.448,639.699 243.229,643.543C244.155,648.101 244.17,667.001 243.305,671.739C242.923,673.831 242.215,675.873 240.999,677.632C238.05,681.896 233.426,683.109 228.618,683.922C222.184,684.117 213.34,683.868 207.638,684.117C184.09,685.144 178.089,681.114 179.271,656.817C179.881,644.266 177.647,634.285 194.339,631.659ZM197.607,639.239C194.685,639.413 192.163,639.408 190.13,641.806C189.167,642.942 188.411,644.291 188.079,645.752C187.114,650.004 187.358,663.757 187.877,668.258C188.134,670.486 189.328,672.791 191.069,674.228C195.169,677.611 219.888,676.195 226.126,676.057C229.068,675.687 231.489,674.799 233.396,672.43C236.382,668.718 235.917,651.697 235.362,646.747C235.137,644.749 234.29,642.496 232.687,641.194C228.601,637.876 203.972,639.155 197.607,639.239Z" style="fill:rgb(7,23,41);"/>
        </g>
        <g transform="matrix(7.010688,0,0,7.010688,-564.900696,-3655.063645)">
            <path d="M461.86,597.868C463.317,598.352 464.681,598.983 466.09,599.595C473.333,602.672 480.639,605.599 488.003,608.372C491.906,613.441 495.663,618.793 499.589,623.922C502.694,627.977 508.993,635.335 511.456,639.449C519.684,630.646 526.733,615.795 536.184,608.793C539.388,606.418 550.035,602.371 554.137,600.617L559.763,598.097C559.015,599.113 557.668,601.056 556.903,601.946C544.92,618.561 532.574,634.911 519.874,650.985C532.877,667.06 548.506,686.97 560.145,703.899C556.472,702.366 537.188,694.382 535.659,692.946C527.413,685.204 519.08,670.55 510.823,661.985C502.762,671.509 493.543,687.772 484.258,694.243C481.962,695.843 466.268,701.736 462.449,703.21C473.309,686.654 489.35,667.245 501.764,651.602C494.994,640.559 488.209,632.518 480.353,622.393C475.23,615.654 470.154,608.88 465.125,602.072C464.499,601.42 462.524,598.727 461.86,597.868ZM510.902,641.852C508.301,644.892 505.835,647.946 503.263,650.99C505.942,653.805 508.329,656.541 510.956,659.361C513.514,656.549 515.875,653.599 518.391,650.746C516.854,648.588 512.885,643.476 510.902,641.852Z" style="fill:rgb(13,213,249);"/>
        </g>
        <g transform="matrix(7.010688,0,0,7.010688,-564.900696,-3655.063645)">
            <path d="M269.974,631.605C279.375,631.185 289.235,631.443 298.671,631.421C311.37,631.39 315.576,633.629 315.477,646.118L307.35,646.265C307.115,644.289 307.055,641.827 305.647,640.48C299.467,638.477 271.159,637.61 266.365,643.037C264.14,645.556 266.17,652.05 268.337,652.503C277.138,655.337 306.441,651.572 312.593,657.04C320.914,664.436 319.573,681.615 304.125,684.001C292.215,684.141 276.063,685.417 264.576,682.448C259.963,681.255 256.666,673.377 258.826,668.957C260.838,667.963 263.567,668.206 265.922,668.178C265.941,670.09 265.838,674.813 268.12,675.153C279.373,676.829 293.039,676.179 304.424,675.504C309.319,675.214 311.13,664.821 306.995,663.108C303.231,661.549 296.109,662.078 291.968,661.655C281.534,659.835 260.244,664.999 257.913,650.555C256.292,640.514 259.717,633.417 269.974,631.605Z" style="fill:rgb(7,23,41);fill-rule:nonzero;"/>
        </g>
        <g transform="matrix(7.010688,0,0,7.010688,-564.900696,-3655.063645)">
            <path d="M400.501,631.628L456.663,631.542L456.679,639.291C440.57,639.178 424.46,639.182 408.351,639.305C408.288,651.63 407.857,664.192 408.15,676.475L415.405,676.536L457.686,676.657L457.612,683.986C438.547,684.239 419.348,683.927 400.212,684.166C400.079,666.653 400.175,649.139 400.501,631.628Z" style="fill:rgb(7,23,41);fill-rule:nonzero;"/>
        </g>
        <g transform="matrix(7.010688,0,0,7.010688,-564.900696,-3655.063645)">
            <path d="M101.37,631.49L110.297,631.568C118.017,645.217 127.421,661.81 135.756,675.017C142.955,660.846 152.278,645.526 160.448,631.747L169.79,631.632L165.968,638.146C157.079,653.124 148.939,669.054 139.943,684.097L131.204,683.858C124.859,674.066 118.583,662.56 112.791,652.372C109.337,646.295 104.046,637.511 101.37,631.49Z" style="fill:rgb(7,23,41);fill-rule:nonzero;"/>
        </g>
        <g transform="matrix(7.010688,0,0,7.010688,-564.900696,-3655.063645)">
            <path d="M325.005,631.511L387.165,631.554L387.099,639.041L360.659,639.009L360.821,658.125L360.929,684.015L352.696,684.032C352.322,669.622 352.665,653.685 352.672,639.185C343.562,639.028 334.157,639.144 325.025,639.142L325.005,631.511Z" style="fill:rgb(7,23,41);fill-rule:nonzero;"/>
        </g>
        <g transform="matrix(7.010688,0,0,7.010688,-564.900696,-3655.063645)">
            <path d="M411.486,653.388L446.479,653.328L446.499,660.856C435.172,661.149 422.877,661.012 411.5,661.002L411.486,653.388Z" style="fill:rgb(7,23,41);fill-rule:nonzero;"/>
        </g>
    </g>
</svg>
