<svg id="Layer_1" data-name="Layer 1" xmlns="http://www.w3.org/2000/svg" viewBox="0 0 1770.21 1633.08"><defs><style>.cls-1{fill:#fdfefe;}</style></defs><path class="cls-1" d="M632.5,1342.86c2.87,9.83,6.44,18.09,7.57,26.68,3.26,24.79-11.16,48.06-36.21,59.68C579.69,1440.42,554,1443,528,1439.73c-10.31-1.3-14.33,2.69-15.72,10.87-1.58,9.26,6.51,8.91,12.18,9.75,25.65,3.81,51.57,4.16,77.4,5.37,11.82.55,23.38,2,34.56,5.93,25.88,9.12,35.09,31.12,23.53,56.41-7.71,16.85-21.51,27.6-38.16,33.7-51.15,18.72-103.36,18.83-155,3.09-31.14-9.5-34.88-30.77-11.55-53.71,7.33-7.21,15.71-13.36,24.48-20.72-7.51-5.6-18.1-7.35-20.65-17.45-2.8-11.13,3.45-18.81,10.74-25.94,6.78-6.64,15.05-11.13,23.58-16.35-3.88-2.44-7.43-4.61-10.92-6.86-33.6-21.65-36.32-66.9-4.9-92,26-20.75,57-24.43,88.35-19.76,30.4,4.53,59.89,15.55,91.39,11.59,7.31-.92,7,4.2,6.93,9.13-.06,5.3.6,10.62-7.6,10.15C648.83,1342.5,640.91,1342.86,632.5,1342.86Zm-75.72,157.27c0-.32,0-.64,0-1-14.06-.82-28.23-.88-42.15-2.75-8.14-1.1-12.24,1.86-15.85,8.17-9.31,16.27-5.4,28.6,13.37,35.18,32.6,11.42,65.56,10.06,97.83-1.65,9.39-3.41,20.67-7.51,19.33-20.85-1.36-13.51-13.6-13.8-23.28-16.38-4-1.07-8.39-.7-12.61-.73C581.22,1500.08,569,1500.13,556.78,1500.13Zm-41.35-130c-.55,13.89,2,27.09,9.34,39,13.58,21.92,37,21.78,50.56-.2,13.67-22.18,6.39-61.1-14.35-76.76-14.65-11.07-31.58-7.08-40.12,9.23C516.11,1350.49,515.4,1360.21,515.43,1370.12Z" transform="translate(-15.49 -85.06)"/><path class="cls-1" d="M702.39,1403.66c0-26.84.66-53.71-.3-80.52-.41-11.18,3.36-13.57,13.42-12.78,10.77.85,21.65.15,32.48.25,5.67.06,12-2.22,12,8.19,0,6.4,5.33,2.17,8,.71,13.45-7.25,27.67-11.59,43-12,37.75-1,62.9,21.92,63.61,59.68.76,40-.08,80.07.23,120.09.06,7.91-2.13,10.89-10.32,10.48-15-.77-34.55,5-43.85-2.46-9.74-7.77-2.65-28.16-3-43-.54-25-.09-49.92-.22-74.88a98.39,98.39,0,0,0-1.23-15.43c-3.29-19.87-13.43-25.33-32-17.5-20.68,8.73-24.71,14.7-24.71,36.61,0,34.86-.41,69.72.25,104.55.2,10.19-2.89,12.92-12.63,12.16a238,238,0,0,0-33.88,0c-8.52.55-11.36-1.77-11.16-10.77C702.78,1459.25,702.39,1431.45,702.39,1403.66Z" transform="translate(-15.49 -85.06)"/><path class="cls-1" d="M318,1501.05c-78.76-2-124.56-73.21-90.75-141.06,18.81-37.74,61.4-57.94,109.67-52,41.62,5.12,74.86,33.72,84.21,72.48C436.22,1442.83,385,1502.77,318,1501.05Zm44.23-86.18c-1.8-20.84-1.83-42.7-13.4-62.11-8.54-14.33-20.23-23.77-37.8-22.26-15.63,1.35-21.34,14-26.58,26.11-8.78,20.21-7.45,41.42-4.16,62.5,2.56,16.45,7.7,32.09,18.83,45,18.24,21.09,42.22,17.64,54.11-7.49C359.42,1443.56,361.53,1429.71,362.27,1414.87Z" transform="translate(-15.49 -85.06)"/><path class="cls-1" d="M1067.14,1422.31c0,21.67-.3,43.35.15,65,.16,7.86-2,10.92-10.25,10.49-12.22-.64-24.49-.16-36.73-.17-5.08,0-9.68,1-10.95-7-1.35-8.51-6.45-1.82-9-.17-19.68,12.89-40.9,13.69-62.27,6.72-32.9-10.73-42.93-48.72-20.79-75.53,11.85-14.35,28.22-21.63,44.67-28.56,10.76-4.53,22.28-7.25,33.12-11.63,5.35-2.16,14.67.36,14.62-9.68-.09-14.87,2.47-31.08-12.09-41.25-8.22-5.74-18.12-4.82-26.9-.2-9.34,4.92-9.29,14.59-10,23.43-1.06,12.4-6.94,20.36-19.68,21.83-12.4,1.43-24.17-.4-30-13.11-5.75-12.55-1.93-23.8,7.77-33.16a59.85,59.85,0,0,1,18.72-12.43c31.66-13.08,64.05-14.12,96.4-3.52,23,7.54,33,22.51,33.19,46.73C1067.29,1380.86,1067.15,1401.59,1067.14,1422.31Zm-57.08,6.68c0-6.58.14-13.17-.07-19.75-.09-3,.53-8.12-4.87-5.5-16,7.79-32.79,15.2-40.29,33.2-4.75,11.37-.9,21.73,7.61,29.39,7.63,6.88,15.3,1.09,23.32-2C1013.93,1457.38,1010,1442.64,1010.06,1429Z" transform="translate(-15.49 -85.06)"/><path class="cls-1" d="M1387,1387.29c-18.38,0-36.75.09-55.12,0-5.75,0-10.4.16-9,8.2,2.76,16.29,6.26,32.28,15.31,46.47,14.64,23,34.91,28.45,59.51,16.29,10.84-5.35,20.27-12.79,25.42-23.52,4.44-9.24,8.84-11.62,19.15-9.1,17.3,4.22,17.63,3.41,9.41,19.21-35.73,68.69-127.75,76.65-169.8,14.68-26.3-38.75-18-97.42,18.27-129.76,33.94-30.23,90.75-30.51,126.07-.53,14.66,12.45,21.82,29,25.35,47.43,1.51,7.91-1,11-9.43,10.81C1423.74,1386.94,1405.36,1387.29,1387,1387.29Zm-1.9-20.14c-1.5-20.58-13.31-34.82-29.44-36.36-12.85-1.23-27.4,12-30.84,27.75-1.1,5-2.09,8.93,5.69,8.75C1348.67,1366.86,1366.85,1367.15,1385.09,1367.15Z" transform="translate(-15.49 -85.06)"/><path class="cls-1" d="M132.34,1250.09c34.86,0,69.72.22,104.57-.17,8.19-.09,11.57,1.54,11.57,10.7,0,8.79-2.43,11.16-11.08,10.88-20.23-.64-40.53.4-60.75-.44-10.93-.45-14.33,2.43-14.23,13.9.57,66.41,0,132.84.56,199.25.1,11.41-3.21,14.65-14,13.55-15.32-1.56-35.9,6.47-44.65-3.14-7.6-8.36-2.36-28.6-2.39-43.59-.1-55.58-.32-111.17.24-166.74.1-10.77-3-13.68-13.52-13.25-20.7.83-41.46-.18-62.16.46-9.06.28-10.89-3.07-11-11.39-.12-8.61,3.34-10.2,10.87-10.14C61.68,1250.24,97,1250.09,132.34,1250.09Z" transform="translate(-15.49 -85.06)"/><path class="cls-1" d="M1550.88,1220.17v25.4c0,79.63-.2,159.27.24,238.9.06,10.34-2.06,14.39-13.06,13.37-11.21-1-22.61-.57-33.9-.07-7,.31-9.87-1.32-9.84-9.16.27-81.52.15-163,.23-244.56,0-3.92-1.17-8.29,5-9.85C1516.36,1230,1533,1225.12,1550.88,1220.17Z" transform="translate(-15.49 -85.06)"/><path class="cls-1" d="M1653,1220.64c.25,4.72.62,8.41.62,12.1,0,83.8-.24,167.59.21,251.39.06,11-2.69,14.84-13.87,13.71a171.07,171.07,0,0,0-31,0c-9.83.81-12.55-2.25-12.48-12.32.48-70.61.13-141.22.38-211.84,0-12.56-5.29-28.32,2.46-36.83,7-7.67,22.35-7.73,34.06-11C1639.54,1224,1645.86,1222.49,1653,1220.64Z" transform="translate(-15.49 -85.06)"/><path class="cls-1" d="M1170.87,1324.87c17-13.79,30.5-22.1,47.66-21.17,6.11.33,12,.86,17.81,3.5,14.92,6.83,21,17.62,16.15,29.64-5,12.39-20.81,18.13-34.65,12.51a37.76,37.76,0,0,1-4.93-2.73c-21.54-12.68-39.75-2.28-40.11,23.73-.53,38.59-.46,77.2,0,115.8.12,9.17-2.33,12.55-11.68,11.59-14.78-1.51-34.69,6.33-43.07-3.09-7.33-8.24-2.25-27.72-2.28-42.23-.11-42.84.48-85.69-.35-128.51-.23-11.74,3.57-14.34,14.14-13.51,10.76.83,21.64.37,32.46.12C1169.23,1310.35,1175.9,1310.15,1170.87,1324.87Z" transform="translate(-15.49 -85.06)"/><path class="cls-1" d="M1759,1402.37c0,28.67-.26,57.36.2,86,.11,7.48-2.14,9.73-9.39,9.37-14.94-.73-34,4.62-43.71-2.68-9.38-7-2.7-27.15-2.85-41.49-.41-39.95.18-79.92-.39-119.87-.13-9.49,2.06-14.54,11.9-16.51,11.45-2.29,22.68-5.82,33.87-9.22,8-2.44,10.64-.15,10.52,8.34C1758.71,1345,1759,1373.69,1759,1402.37Z" transform="translate(-15.49 -85.06)"/><path class="cls-1" d="M1351.05,1580.27c0-14.29.15-27.46-.08-40.62-.09-5.14.87-8.67,6.2-11.13,11.84-5.47,14.41-4.14,14.42,9.06,0,42.9.1,85.79-.13,128.68,0,4.09,3,11.33-3.68,11.55-5.46.18-14.69,6.37-17-5.48-1-5-4-2.08-6.29-1.3-30.31,10.28-44.19,7.66-57.58-10.92-14.08-19.54-13.42-47,1.59-65.63C1304,1575.26,1325.45,1569.88,1351.05,1580.27Zm0,48.54h-.39c0-8.44.6-16.94-.16-25.31-.94-10.38-7.78-16.88-17.15-20.27-9-3.23-16.45.31-22.88,6.7-17.4,17.3-14,58,6,72,8,5.66,16.26,5.7,25.24,1.89,9.28-3.94,9.88-11.23,9.43-19.55C1350.85,1639.14,1351.08,1634,1351.08,1628.81Z" transform="translate(-15.49 -85.06)"/><path class="cls-1" d="M1035.41,1592.72c3.29-2.62,4.76-3.61,6-4.83,12-11.63,25.61-17.7,42.26-11.36,17,6.48,24.18,21,25.81,37.43,4.25,42.9-25.39,74.76-66.42,60.89-6.82-2.31-8.3-.79-8.18,5.63.19,9.88-.5,19.79.15,29.62.52,7.89-3.69,8.37-9.44,7.92-5.19-.39-11.43,2.14-11.36-7.53q.48-62.79-.08-125.6c-.07-8.26,3.88-9.05,10.38-8.92,6.07.13,11.66-.19,10.45,8.54C1034.74,1586.28,1035.15,1588.13,1035.41,1592.72Zm51.95,38.2a63.85,63.85,0,0,0-2.62-20.91c-4.62-15.68-14.38-23.72-26.77-21.7-14.54,2.37-23.07,12.92-23.1,28.53,0,9.9-.26,19.8-.09,29.69.19,11.22,5.93,18.64,16.53,22,11,3.49,20.53,1.08,27.58-8.41C1085.31,1651.49,1087.86,1641.61,1087.36,1630.92Z" transform="translate(-15.49 -85.06)"/><path class="cls-1" d="M1563.18,1579c0-12.67.74-25.74-.22-38.68-.88-11.82,7.79-12.42,15-14.59,4.72-1.41,4.94,2.49,4.94,6.09q-.08,70,0,139.94c0,3.38.37,7.28-4.66,6.48s-12.3,3.57-14.7-3.64c-1.6-4.83-1.83-5.61-7-3.65-28,10.7-44.1,7.78-56.84-9.5-14.54-19.73-14.68-47.31-.35-65.69,16-20.48,35.88-25.75,61-16.19C1560.8,1579.74,1561.34,1579.43,1563.18,1579Zm0,49.57h-.36c0-8,.53-16-.13-23.92-.86-10.24-6.92-17.3-16.29-21.08-8.76-3.53-16.56-.83-23.25,5.32-18.29,16.83-15.07,59.28,5.43,73.07,8.67,5.83,17.14,5.57,26.5,1.06,8.79-4.24,8.26-11.41,8.12-19C1563.14,1638.93,1563.22,1633.77,1563.22,1628.6Z" transform="translate(-15.49 -85.06)"/><path class="cls-1" d="M716.48,1611.32c0-17.91.33-35.83-.16-53.72-.21-7.53,1.13-11.32,9.8-10.78,14.55.9,29.26-.1,43.73,1.41,21.75,2.27,35.5,16.4,35.91,34.87.42,18.64-12.76,32.09-35.19,35.08-6.46.86-13.41,1.16-19.67-.28-10.91-2.5-12.61,2-12.07,11.47.71,12.21-.49,24.55.38,36.74.75,10.4-5.18,9.68-12.24,10-7.45.36-11-.91-10.69-9.67C717,1648.1,716.49,1629.7,716.48,1611.32Zm22.45-27.9c0,6.1,0,12.19,0,18.29,0,3.87.22,7,5.06,8.57,15.52,5.18,32.39-2.31,36.85-16.87,4.83-15.81-4.25-31.61-20.59-35.81-17.64-4.53-21.28-1.8-21.28,16C739,1576.86,739,1580.14,738.93,1583.42Z" transform="translate(-15.49 -85.06)"/><path class="cls-1" d="M1446.77,1664.3c-8.77,5.07-15.17,10.66-23.65,12.63-14.39,3.34-27.3-1.36-32.73-12.47-5.54-11.35-2.12-25,8.93-34s24.67-13.72,38.35-16.74c8.81-2,10.25-5.87,9.19-13.66-1.33-9.86-4.91-17.12-15.89-18.2-8.11-.79-15.21.55-17.78,9.75-.61,2.21-.17,4.7-.58,7-1.17,6.59-4.13,12.43-11.82,10.71-8.62-1.93-10.08-8.82-8-16.62,1.59-6,6.31-9.4,11.31-11.93a60.68,60.68,0,0,1,47.86-3.59c8.57,2.83,14.69,8.93,14.9,18.56.53,24.44.55,48.89.94,73.33.09,5.75-2.75,6.76-7.85,7C1451.79,1676.54,1445.13,1676,1446.77,1664.3Zm.45-27c0-4.22-.09-8.44,0-12.65s-1.19-6.32-5.72-4.47c-10.41,4.25-20.79,8.44-28.55,17.19-5.42,6.1-5.8,12.41-2,19.28,3.94,7.11,10,9.26,17.81,7.85C1443.14,1661.93,1447.25,1655.92,1447.22,1637.34Z" transform="translate(-15.49 -85.06)"/><path class="cls-1" d="M891.3,1627c.45-31,23.14-53.42,53.57-52.81,30.69.62,52.24,22.07,51.48,51.26-.77,29.81-23.91,52.9-52.86,52.75C913.8,1678,890.88,1655.53,891.3,1627Zm82.6.78c-1.36-10.22-2.18-23.46-10.82-34.32-13.42-16.89-35-14.69-44.5,4.57-6.39,12.91-5.47,26.63-2.48,40,4.8,21.45,18,33.43,33.35,31.84C963.87,1668.31,974.11,1651.89,973.9,1627.75Z" transform="translate(-15.49 -85.06)"/><path class="cls-1" d="M1222.91,1616.5c-6.59,0-13.17,0-19.76,0-18.39,0-18.84.36-13.59,17.63,4,13.18,11.12,24.4,25.76,27.06,15.66,2.86,28.53-2.9,38.31-15.58,2-2.57,2.48-9,7.48-5.84,4.17,2.6.4,6.87-1.18,10-12.27,24.43-40.07,34.49-64.38,23.43-26-11.82-35.56-41.79-22.68-70.88a47.69,47.69,0,0,1,61.38-24.95,37.14,37.14,0,0,1,15,10.17c6.48,7.63,14.14,16.67,9.93,26.24-2.91,6.62-13.61,1.88-20.78,2.58C1233.3,1616.88,1228.08,1616.48,1222.91,1616.5Zm-35.87-8.92c13.79,0,26.38-.41,38.93.13,11,.47,10.29-4.62,6.45-11.7-5.12-9.45-13.15-15-23.89-13.59C1195.7,1584.13,1190.14,1593.65,1187,1607.58Z" transform="translate(-15.49 -85.06)"/><path class="cls-1" d="M1658.25,1616.53c-9.9,0-19.81.26-29.69-.09-6.5-.24-7.66,2.24-7.1,8.39,1.5,16.55,12,32.25,25.13,36.13,14.37,4.24,29.71-1.71,41-15.66,1.82-2.25,2.31-7.85,6.51-5.55s1.46,6.49-.12,9.9c-10.48,22.65-38.88,34.14-62,25-24.57-9.66-36.44-37.1-27.89-64.63,6.3-20.3,19.47-33,40.93-35.8a44.21,44.21,0,0,1,45,22.92c8.65,15.84,6.79,19.26-10.47,19.28h-21.21Zm11.58-8.93c-2.66-15-9.89-23.29-23-25.15-11.5-1.64-18.28,5.74-23.08,14.85-2.88,5.47-4.22,10.79,5.67,10.42C1642.5,1607.23,1655.61,1607.6,1669.83,1607.6Z" transform="translate(-15.49 -85.06)"/><path class="cls-1" d="M1752.64,1677.87c-17.36.41-27.71-3.49-36.3-11.5-3-2.82-8-5.6-2.21-11,5.4-5,7.11-.3,9.7,2.68,7.13,8.2,15.33,13.83,27,12,6.57-1,11.34-4.2,13.48-10.75,2.3-7-.77-12.22-6.31-15.58-8.4-5.08-17.37-9.22-26-14-15.68-8.65-22-19-19.15-32.54,3-14.52,14.06-20.37,27.3-22.73,14.87-2.65,33.06,4.94,38.81,15.15,1.87,3.32.85,4.81-1.49,7-3.69,3.45-5.25,1-7.46-1.76-6.77-8.43-14.87-14.14-26.53-13.06-7.3.67-12.91,3.72-15.25,10.53-2.47,7.19,2.86,11.85,8,14.75,10.61,6,22.18,10.22,32.7,16.31,18.41,10.66,22,29.44,9.06,43.66C1769.68,1676.12,1758.55,1677.59,1752.64,1677.87Z" transform="translate(-15.49 -85.06)"/><path class="cls-1" d="M842.21,1589.05c4.08-3.45,7.74-7,11.81-9.89,5.48-3.94,11.64-6.62,18.49-4.3,6.67,2.26,12.36,6.28,10.11,14.4-2,7.42-8.54,8-15,6.73-21-4.15-27.84,1.39-27.9,22.85,0,16-.4,32,.12,48,.26,7.86-3,9.32-10,9.24-7.17-.08-11.13-.83-10.91-9.78.61-24.92-.1-49.88.47-74.81.11-5.26-5.05-13.86,6.21-15.33C836,1574.8,838.44,1576.41,842.21,1589.05Z" transform="translate(-15.49 -85.06)"/><path class="cls-1" d="M1761.11,1251.41c0,15.93-13.26,28.11-30.59,28.07s-30.59-12.62-30.31-28.54c.27-14.84,14-27.33,30.12-27.46C1747.48,1223.34,1761.11,1235.7,1761.11,1251.41Z" transform="translate(-15.49 -85.06)"/><path class="cls-1" d="M1149.18,1626c0,13.12-.6,26.28.21,39.35.57,9.22-3.2,10.59-11.32,10.86-9.13.31-9.55-4.06-9.48-11,.26-25.31.52-50.63-.14-75.92-.22-8.42,3.42-11.22,10.38-13.68,8.83-3.13,10.67.12,10.45,8.23C1148.9,1597.9,1149.18,1612,1149.18,1626Z" transform="translate(-15.49 -85.06)"/><path class="cls-1" d="M1140,1545.81c-7.59-.5-12.61-3.07-12.71-9.89-.09-6.62,4.26-10.2,10.89-10.29s11.11,3.08,11.48,9.77C1150.05,1542.54,1144.52,1544.5,1140,1545.81Z" transform="translate(-15.49 -85.06)"/><path class="cls-1" d="M909.37,219.51c-18.07-1.47-36.19-2.32-53.22,7.85l-34.47,28.15,0,0c-9.92,11.77-23.67,11.2-38.73,11,4.09,5.76,9.85,5.86,14,8.51,3,1.9,12.83-3.92,8.36,6.95-.09.2,1.1,1.32,1.75,1.37,6.82.53,13.06-8.48,21.28,2.08,3.55,4.57,15.77-4.17,22.82-9.75,2.36,3.51-1.44,10.26,5.93,10.88,6.87-2.9,13.73-5.7,19.37-10.95,3.8-3.53,7.61-5.54,10.33,1.92,1.59,4.37,13.08,9,22.63,10.71Z" transform="translate(-15.49 -85.06)"/><path class="cls-1" d="M904.65,219.51c18.07-1.47,36.19-2.32,53.22,7.85l34.47,28.15,0,0c9.92,11.77,23.67,11.2,38.74,11-4.1,5.76-9.86,5.86-14,8.51-3,1.9-12.83-3.92-8.36,6.95.09.2-1.1,1.32-1.75,1.37-6.82.53-13.06-8.48-21.28,2.08-3.55,4.57-15.77-4.17-22.82-9.75-2.36,3.51,1.44,10.26-5.93,10.88-6.87-2.9-13.73-5.7-19.37-10.95-3.8-3.53-7.61-5.54-10.33,1.92-1.59,4.37-13.08,9-22.63,10.71Z" transform="translate(-15.49 -85.06)"/><rect class="cls-1" x="854.49" y="237.65" width="74.07" height="60.01"/><path class="cls-1" d="M448.24,798.62c-3.17-.09-7.39,1.57-9-1.92-1.43-3.16,1.42-6.86,3.78-8.5,4.39-3.06,10.37-6,5.86-11.47-3.79-4.58-9,0-13.54,2.51-7.36,4.06-15.05,7.86-23.74,8.2-2.88.11-6.82,3.19-8.39-1.71-1-3.08-.88-6.44,1.61-9.25,6.3-7.16,12.5-14.41,18.74-21.61-4.89-3.29-10.43,1.39-16.16,1.78-3.27.22-7,.54-9.08-2.23s.93-5.06,2-7.53c5.34-11.82,12.61-19.79,27.19-15.12,2.24.72,5.74,2.75,6.84-1.62.88-3.52-2.14-5.06-4.58-6.18-9.2-4.23-18.52-8.19-29.09-12.82,5.87-3.8,11.89-7,4.37-14.28-5.65-5.5,1.52-7.06,4.69-8.29,8.47-3.29,18.47-5.33,5-15.57-2.37-1.8-1.65-3.77.92-5.38,3.87-2.43,3.28-6.06.25-8.1-8.81-5.93-10-10.67-.32-17.43,4.17-2.93-.15-9-2.77-11-5.92-4.39-14-4.26-20-1.07-4.94,2.59-11,9.68-7.11,15,10.88,15.06.55,16.55-11.94,17.61,5.53,8.67,13.34,8.41,20.58,10.65-6.24,9.88-16.37,8.65-23.51,5.24-10.41-5-16.33-15.26-15.54-27.54,1.36-21,14.51-33.17,35.61-33.57,3.29-.07,6.59,0,9.89,0,26.42.27,35.5,7.3,42.65,33.08,1.09,3.91,2.09,7.84,3.8,14.31,3.75-8.06,5.83-14.37,11.43-19.14,3.63-3.1,5-15.43,9.91-10,5.47,6,19.67,14.74,12.22,23.84-11.1,13.57-.05,15.08,6.7,20.16-.49,4.48,1.89,9.16-1.53,14.48-3.14-5.31-7-9.34-13.36-5.57-7.84,4.67-15.31,10.57-15,20.23.28,8,.47,17.85,12.58,21.51-.59-9.27,2.05-16.74,8.69-21.77,3-2.29,5.39-8.52,10-5.73,5.07,3.09-3.63,6.82-1.14,10.88,4.7,7,9.75,8,15.44,1.65,6-6.8,13.62-12.94,13.64-23.65,0-3.45,2.43-6.9,3.72-10.3-.93-.71-1.56-1.53-2.35-1.74-19.65-5.42-19.87-5.6-6.38-20.08,3.65-3.93,5.76-8.43,8.14-12.91.81-1.52.58-3.59.82-5.41-8.65-.11-9.35-12.18-12.54-12.35-14.62-.77-8.66-9.72-6.94-15.57,6.3-21.51-4.7-39.13-24.45-51.34-6.39-3.95-10-2.89-13,5.54-9.21,26.36-34.57,25.61-55,18.41-13.24-4.67-13-13.71-1.55-21.65,3.36-2.34,7.38-4.88,6.81-10-.56-4.9-5.3-4.58-8.49-6.17-4.15-2.06-8.8-3.43-11.56-8.4,6.7-2.29,12.31-5.82,14.89-13-3.73-3.31-8.1-1.34-12-2-7.23-1.3-11.79-5-11.32-13.14.63-10.75,6.38-1.33,9.38-2.49,5.12-2,7.92-4.33,5.92-11.29-3.28-11.43-7.82-21.42-16.94-29.45-40-35.18-47.25-81.85-42.37-131,2.67-26.89,16.58-50.07,38.24-67.58a61.94,61.94,0,0,0,5.78-5.79c.24-.25,0-.91,0-1.56-2.07-5.45-12.1.61-11.52-6.4.54-6.66,6.22-10.56,13.34-12.39,8-2.06,14-6,3.34-13.29-9-6.12-4.26-8.19,2.7-9.89,6.37-1.55,12.7-3.26,20.13-5.18-6.51-8.4-6.48-13.62,5.92-11.64,4.17.67,9.78-.75,12.41,1.5,18.45,15.76,41.41,12.71,62.79,16.4,4.39.76,8.42,3.57,12.62,5.44,7.53,6.81,14.87,13.87,22.72,20.3,2.49,2,4.54,9.45,9.28,3.62,3.45-4.25,2.78-9.65-2.56-13.27-6.86-4.67-13.65-9.44-20.47-14.17a82.73,82.73,0,0,1-5.7-6c-2.53-3.23-7.36-6.27-5.67-10.6,2-5.17,7.23-2,11.07-1.63,2.86.28,5.88,1.14,7.73-1.59,2.21-3.25.25-6.53-1.53-9.14-2.08-3-5-5.53-7.44-8.19,2.73-5.86,7.3-3.28,11.21-3,2.64.2,6,2.32,7.28-1.36,1.39-3.86-2.09-5.36-4.69-7.53-4.4-3.65-9.37-3.9-14.55-4.27-3.15-.23-8.43.27-8.39-3.24.09-9.07-4.63-10-11.6-9-6.35.92-10,5.41-11.43,10.83-1.91,7.4,3,11.91,8.63,16.08,3.23,2.39,7,2.12,14.29,4.47-13.11,3.93-22.16,9.2-30-2.32-2-2.9-3.86-5.26-7.88-2.43-8.19,5.77-17.27,2.47-26.64,1.73,15.25-4.56,22.24-15.69,27.66-29.57,7.85-20.11,43.71-28.75,61.94-16.12,2.2,1.53,3.67,7.22,7.3,2.63,2.31-2.92-.53-5.6-2.9-8.25-7-7.85-13.53-16.19-21.19-25.49,4.46-.9,7.22-2.19,9.76-1.85,12.73,1.69,18.38-.07,11.9-15.07-4.24-9.82,5.74-8,10-5.92,5.34,2.67,8.44,2.37,14.48.61,14.44-4.19,2.09,10.6,9.23,13.52,16.45-2.79,17.75-.91,10.85,18.06-.64,1.76-2.13,3.94-1.6,5.28,2.12,5.36-10,8.35-3,12.64,4.72,2.91,11.69,1,16.64-4,2.84-2.88,6.84-4.6,12-8-3.33,12.67,3,18.33,12.88,21.65,8.64,2.9,7,9.55,6.19,16.7l-21.69-9.1c-.39,6.79-.73,12.77-1.07,18.74-9.46-2.36-17.62-13.24-31.13-3.81,10.68,1.7,18.57,5.06,25.69,10.09,0,3.26-1.56,4.74-4.7,5.9-22.48,8.28-25.83,12.9-23.12,36.69,1.23,10.75,4.09,21.71,14,30.76,1.86-18.87.36-36.51,12.31-51.89,13.56-17.44,52.87-19.48,66.2-1.93C665.32,206,665,230.41,659,239c-6.82,9.69-15.89,13.17-28.55,9.24,4.94-4.26,9.58-7.3,12.92-11.4,4.07-5,5.68-10.7-1-15.55-7.22-5.25-14-3.2-18.11,3.18-12.2,18.82-7.39,47.18,10.18,65.06,3.6,6.6,8.64,9.46,17.7,6.55L640.5,283.56c.12-4.22-.49-8.63.52-12.62,2-7.94,5.91-13.11,14.68-6.33,3.25,2.5,6.78,7,10.95,4.38,5.68-3.57-1.67-8.17-.72-12.12,1.86-3.25,4.51-1.88,6.41-1.3,8.91,2.72,10.55-.22,9-9-4.12-23.94-2.21-29.67,11-40.21,6.23,3.23,1.31,10.52,6.38,16.1,8.93-12.16,19.76-20.62,36-16.37,14,3.66,26.72,9.78,40.63,20.15-7.58.44-12.83.71-18.08,1.06-7.32.5-11.62,5.25-11.78,11.75-.22,8.74,7.44,5,11.34,4.63,6.19-.63,9,4.23,13.61,6,1,5.61,4.19,11.43-6.2,12.34-7.39.65-12.13,6-12.45,14.46-.58,15.45,9,31.13,23,38.5,14.72,7.75,30.15,9.69,46.36,7.82-5.75,11.46,1.83,22.63.76,34-19.1,5.94-38.15,12-40.14,36.61-.36,4.48-2.84,5.92-6.59,4.76-4.06-1.25-10.83,0-10.24-7,1.12-13.55-4.3-10.72-13.84-8.07-12,3.34-21.67,5.09-23.57,20.77-1.07,8.79-12.13,5.46-16,2-11.92-10.7-19.37,9-30.26,3.47-.89-.45-1.34,5.92-.55,8.92,1.24,4.76,5.12,6.49,9.82,6.1,8-.66,15.92-2.1,23.88-2.14,17.11-.11,21.85,6.29,17.64,22.78-.7,2.73-1.69,5.37-3.23,10.19-3.23-15.21-12.6-17-23.56-12.91-12.25,4.62-23.73,3.68-35.75-2.74-2.75,8.54,5.42,23-12.19,21.85,2.17,13.87-14.46,13.13-17.87,22.87-.83,2.39-7.11,2.83-3.31,7.11,2.34,2.63,6.63,2.49,9.29.92,4.27-2.5,7.82-6.24,12.84-10.43-.28,15.56-7,24.37-20.25,28-12.31,3.35-21.09-.28-24-13.75-.92-4.37.39-10.05-8-5.68-6.17,3.21-4.73-3.45-4.69-6.56.07-6.49-2.58-9.76-7.07-15-5.44-6.36.3-21.22-10.23-29,1-1,2.3-1.76,2.79-2.92,1.48-3.57,9.76-2.3,6.81-8.29-2.69-5.44-8.57-4.49-13.86-4.29s-8.65,3.43-12.4,6c-10.49,7.3-10.63,11.45.64,16.33,11,4.76,11.8,8,.78,13.6-6.59,3.37-5.94,6.93.64,10.92,7.61,4.62,6.63,8.39-1.89,12.18-8.12,3.61-17.72,1.7-25.28,7.24,2,6.76,26.73,10.07,1.37,19.57,7.21,8.36,16.86,10.2,28.66,15.67-11.4.81-19.09.94-26.62,2.11-2.84.45-6.62,2-7.29,5.77-.45,2.63,1.53,3.8,4,4.88,12.54,5.61,4.54,8.77-2.53,12.73,19.94,12.09,37.16,26.38,46.55,48.24,12.37,28.82,11.06,58.25,5.7,88.24-2.92,16.28-16,31.53-4.42,49.64,3.64,5.7-1.77,9.32-7.86,9.9-4.78.46-8.33,1.57-6.4,7.74,1.61,5.15,6.18,11.46.57,15.53-6,4.38-10.45-4.2-17.36-5.27-.87,6.44-3.17,12.33,4.86,16.48,6.32,3.27,5,7.51-.61,10.18-3.35,1.61-7.66,1.38-5.91,7.15,1.43,4.72,5.15,5,8.91,5.22,4.58.21,9.18,0,14.13,0-13,16.07-31.15,14-39.42-3.94-1.37-3-2.43-6.07-3.75-9.06-1.1-2.5-1.89-5.68-5.66-5-2.78.53-2.93,3.36-3.83,5.4-3.73,8.47-3.11,17.48-3.33,26.41-.08,3,.21,7.16-4.53,7.42-4.36.24-5.06-3.3-6-6.53-1.16-3.91,1.36-10.88-6.67-9.5s-12.3,6.92-12.78,14.58c-.35,5.67-1.66,12.41,6.47,15.09,18.86,6.23,19.33,9,4.78,24-1.85,1.91-5.63,4.27-2.65,6.71,5.31,4.34,8.89,11,16.06,12.92,3.59,1,4-2.23,5.73-4.47,5.32-6.94,10.78-18.37,19.43-2.56,2.38,4.36,5.94,4.07,9.52,1.59,5.3-3.68,8.82-9.23,8.69-15.24-.13-6.28-5.61-2.4-8.84-2.45-9.82-.16-16.9-4.33-16.67-14.72.21-9.26,3.63-17.36,15.05-18.49,19.9-2,36,18.21,26.8,40-7.72,18.26,2.58,24.49,12.13,33.16,10.21,9.27,12.3,37.14,2.91,47.47-11.68,12.88-38,16.09-48.54,4.93-7.5-7.92-5.89-19-3.35-28.2,2-7.3,9.8-11.07,18-11.23,4-.08,8.26,2.61,12-1l.3,2.29,1.71-.95-1.9-1.43c-7-10.49-14.38-16.44-29.27-13.14-35.59,7.88-70.06-13.33-70-54.79,0-5.62-.13-11.23-.2-16.85-1.44-3.26,5.34-14.09-7-7.35-6.65,3.64-7.49-1.56-6.78-5.88.92-5.61,4.49-10.38,8.92-13.8s9.86-5.29,14.26-8.64c3.73-2.84,7.43-7.24,4.05-12-3.77-5.34-7.56-.23-10.67,1.84C464.68,786.64,456.52,792.72,448.24,798.62ZM436.32,405l.15-.15-2.72,3.19-2.56,1.62c-16.14-1.85-19.82-14.16-22.76-27.1,3.86-2.33,6,1.7,8.78,2.74,4.24,1.57,8.45,3,11.77-.38,4.3-4.43-1.61-7.1-2.54-10.65-1.56-5.89-7.84-8.81-9-15.23,8.45-3.3,20.9-.59,19.27-15.58-1.12-10.29,2.88-12,11.19-5.4,4.21,3.32,11.67,8.72,8.13-4.43-1.08-4,2.09-4.4,5.07-4.7,4.92-.5,9.17,1.22,13.38,3.5,7.55,4.09,10.55,2.11,8.89-6.61-.46-2.37-2.13-5.66,2.45-7.52a23.48,23.48,0,0,1,3.89,3.15q10.65,12.91,21.11,26c4.77,6,9.84,4.82,14.4.18,5.88-6-1.76-7.39-4-10.73-1.74-2.61-7.1-.45-6.75-5.45,1.29-18.09-9.87-20.3-24.18-19.65-6.62.3-15.2,3.4-19.47-3.66-5-8.23-11.67-7.94-18.15-5.31C417.87,317,389,335.93,397.62,379.78c3.39,14.7,9.12,28,22,37.11,11.51,15.19,28.13,20.92,45.8,24.58,7.41,1.53,13.07-2,16.44-8.07,3-5.4,1.59-10.87-3.15-15.28-2-1.86-3.32-5.05-6.73-4s-3.77,3.91-3.3,6.9c1.59,10.31-4.3,8-10,5.9-6.17-2.25-10.35-6.31-11.38-13.07-1.73-4.36,1.65-12.13-7.64-11.44l-.22.05A2.69,2.69,0,0,0,436.32,405Zm131.37-8c9.35.69,14.63-.85,19.88-2.92,6.44-2.54,12.71-.45,16.95,3.83s8.79,5,13.88,4.57c10.23-.9,18.16,3.61,25.51,9.89,6.21,5.3,12.46,10.55,18,15.25,4-27.17,3.57-28.16-14.57-32.36,7.44-13.65,7.51-14.14-7.3-16-8-1-5.85-6-5.21-10.19,1.63-10.77-4.07-14.07-13-11.79C599.55,363,582.65,376.48,567.69,397ZM672.46,276.56c2.57,10.58-.48,20.81,9.46,26.65,2.47,1.46,5.57,3.51,7.67,1.72,1.65-1.4,2.09-5.13,1.83-7.7C690.35,286.45,681.21,283.06,672.46,276.56Z" transform="translate(-15.49 -85.06)"/><path class="cls-1" d="M821.26,322.87c4.85-19.89,14-27.33,34.09-27.61a56.77,56.77,0,0,1,6.07,3.24c5.23,3.67,4.7,10.68,8.56,15.2-5.23,3.59-8.76,9.81-16.32,9.75-5.36,0-12.59-2-14.28,5.24-1.74,7.49-2.94,15.6,3,22.65,4.54,5.43,12.72,6.94,14,16.34.84,6.31,6.37,12,9.79,18-3.86,3.84-7.15-.82-10.6-.13-3.27-2.9-6.75-5.42-11.18-6.23Q833.17,368.06,822,356.85C823.09,345.5,815.51,334.33,821.26,322.87Z" transform="translate(-15.49 -85.06)"/><path class="cls-1" d="M569.76,911.67l1.9,1.43-1.71.95-.3-2.29Z" transform="translate(-15.49 -85.06)"/><path class="cls-1" d="M439.47,402.45,436.32,405A2.69,2.69,0,0,1,439.47,402.45Z" transform="translate(-15.49 -85.06)"/><path class="cls-1" d="M408.61,382.72l-2.22-.9,2.2-2.65C408.6,380.35,408.6,381.53,408.61,382.72Z" transform="translate(-15.49 -85.06)"/><path class="cls-1" d="M706.9,600.4c28.58,4,45.91-7.44,51.78-39.17,3.22,6.16,4,7.23,4.37,8.43,5.94,19.69,15.64,34.63,39.54,33.23,3.55-.2,11.91-.29,4.9,7.45a105.42,105.42,0,0,1-15.35,14.46c-6.83,5-5.06,11.52-4.48,17.88.63,6.93,1.79,13.82,3.41,25.86-22.19-18.79-42.91-22.09-64-1.48-2.41-15.27,6.44-26.34,3.26-37.27C727.1,618.69,714.05,613.79,706.9,600.4Z" transform="translate(-15.49 -85.06)"/><path class="cls-1" d="M942.41,622.78c-7.21,3.11-8.46,8.55-7.88,16,.65,8.36,4.54,16.44,1.87,27.58-20.26-15.37-41-21.79-59.63-1-4.71-3.44-4.1-5.92-3.25-7.94,8.15-19.29,5.17-35.28-13-47.54-3.74-2.53-8-9.51,1-8.59,24.47,2.49,35.69-11.15,43.31-31,.45-1.15,1.92-1.91,4.83-4.68,4.94,27.2,21.6,38.91,47.5,38C956.42,613.14,946,615.36,942.41,622.78Z" transform="translate(-15.49 -85.06)"/><path class="cls-1" d="M768.47,990.61c7.51,11.56,22.17,16.71,27.48,30.38.13.33,4.15-.84,6.35-1.31-.82,6.23,4,6.53,8,7.41,5,1.08,10.17,1.25,14.31,4.75-9,13.69-22,19.5-35.25,13.15-9.1-4.35-14.32-2.13-20.23,4.24-7.69,8.29-17.31,14-27.35,19-5.21,2.58-11.1,3.86-15.71-.78s-2.59-10.09-.63-15.67c3.08-8.78,9.74-15.41,16.16-20.31,11.15-8.51,11.13-18.13,8.75-29.62-3.19-15.36-2-19.3,9.74-32.87Zm33.61,48.51,1.36,1.05-1.12-1.29c-10.06-17.31-25.91-27.45-46.31-37.65,3.51,8.74,7.19,12.88,12.81,15.53,5.14,2.43,10.68,4.75,13,10.3C785.64,1036.38,793.15,1038.76,802.08,1039.12Z" transform="translate(-15.49 -85.06)"/><path class="cls-1" d="M802.08,1039.12c-8.93-.36-16.44-2.74-20.28-12.06-2.3-5.55-7.84-7.87-13-10.3-5.62-2.65-9.3-6.79-12.81-15.53,20.4,10.2,36.25,20.34,46.31,37.65Z" transform="translate(-15.49 -85.06)"/><path class="cls-1" d="M793.36,1038.88l1.12,1.29-1.36-1.05Z" transform="translate(-15.49 -85.06)"/><path class="cls-1" d="M1340.88,781c-3.11-2.07-6.9-7.18-10.67-1.84-3.38,4.8.32,9.2,4,12,4.4,3.35,9.89,5.27,14.26,8.64s8,8.19,8.92,13.8c.71,4.32-.13,9.52-6.78,5.88-12.3-6.74-5.52,4.09-7,7.35-.07,5.62-.22,11.23-.2,16.85.09,41.46-34.38,62.67-70,54.79-14.89-3.3-22.27,2.65-29.27,13.14l-1.9,1.43,1.71.95.3-2.29c3.74,3.6,8,.91,12,1,8.21.16,16,3.93,18,11.23,2.54,9.18,4.15,20.28-3.35,28.2-10.56,11.16-36.86,8-48.54-4.93-9.39-10.33-7.3-38.2,2.91-47.47,9.55-8.67,19.85-14.9,12.13-33.16-9.19-21.75,6.9-41.92,26.8-40,11.42,1.13,14.84,9.23,15.05,18.49.23,10.39-6.85,14.56-16.67,14.72-3.23,0-8.71-3.83-8.84,2.45-.13,6,3.39,11.56,8.69,15.24,3.58,2.48,7.14,2.77,9.52-1.59,8.65-15.81,14.11-4.38,19.43,2.56,1.71,2.24,2.14,5.42,5.74,4.47,7.16-1.9,10.74-8.58,16.06-12.92,3-2.44-.81-4.8-2.66-6.71-14.55-15-14.08-17.74,4.78-24,8.13-2.68,6.82-9.42,6.47-15.09-.48-7.66-4.9-13.24-12.78-14.58s-5.51,5.59-6.67,9.5c-1,3.23-1.65,6.77-6,6.53-4.74-.26-4.45-4.38-4.53-7.42-.22-8.93.4-17.94-3.33-26.41-.9-2-1-4.87-3.83-5.4-3.77-.71-4.56,2.47-5.66,5-1.32,3-2.38,6.09-3.74,9.06-8.28,18-26.45,20-39.43,3.94,4.95,0,9.55.16,14.13,0,3.76-.18,7.48-.5,8.91-5.22,1.75-5.77-2.55-5.54-5.91-7.15-5.6-2.67-6.93-6.91-.61-10.18,8-4.15,5.73-10,4.86-16.48-6.91,1.07-11.32,9.65-17.36,5.27-5.61-4.07-1-10.38.57-15.53,1.93-6.17-1.62-7.28-6.4-7.74-6.09-.58-11.5-4.2-7.86-9.9,11.54-18.11-1.5-33.36-4.42-49.64-5.36-30-6.67-59.42,5.7-88.24,9.39-21.86,26.61-36.15,46.55-48.24-7.07-4-15.07-7.12-2.53-12.73,2.42-1.08,4.4-2.25,4-4.88-.67-3.79-4.45-5.32-7.29-5.77-7.53-1.17-15.22-1.3-26.62-2.11,11.8-5.47,21.45-7.31,28.66-15.67-25.36-9.5-.59-12.81,1.37-19.57-7.56-5.54-17.16-3.63-25.28-7.24-8.52-3.79-9.5-7.56-1.89-12.18,6.58-4,7.23-7.55.64-10.92-11-5.62-10.22-8.84.79-13.6,11.26-4.88,11.12-9,.63-16.33-3.75-2.61-7.23-5.84-12.4-6s-11.17-1.15-13.86,4.29c-3,6,5.33,4.72,6.81,8.29.49,1.16,1.84,2,2.79,2.92-10.53,7.76-4.79,22.62-10.23,29-4.49,5.23-7.14,8.5-7.07,15,0,3.11,1.48,9.77-4.69,6.56-8.39-4.37-7.08,1.31-8,5.68-2.86,13.47-11.64,17.1-23.95,13.75-13.23-3.59-20-12.4-20.25-28,5,4.19,8.57,7.93,12.84,10.43,2.66,1.57,7,1.71,9.29-.92,3.8-4.28-2.48-4.72-3.31-7.11-3.41-9.74-20-9-17.87-22.87-17.61,1.2-9.44-13.31-12.19-21.85-12,6.42-23.5,7.36-35.75,2.74-11-4.13-20.33-2.3-23.56,12.91-1.54-4.82-2.53-7.46-3.23-10.19-4.21-16.49.53-22.89,17.64-22.78,8,0,15.91,1.48,23.88,2.14,4.7.39,8.58-1.34,9.83-6.1.78-3,.34-9.37-.56-8.92-10.89,5.53-18.34-14.17-30.26-3.47-3.9,3.5-15,6.83-16-2-1.9-15.68-11.55-17.43-23.57-20.77-9.54-2.65-15-5.48-13.84,8.07.59,7-6.18,5.76-10.24,7-3.75,1.16-6.23-.28-6.59-4.76-2-24.64-21-30.67-40.14-36.61-1.07-11.35,6.51-22.52.76-34,16.21,1.87,31.64-.07,46.36-7.82,14-7.37,23.61-23.05,23-38.5-.31-8.45-5.06-13.81-12.45-14.46-10.39-.91-7.22-6.73-6.2-12.34,4.57-1.81,7.42-6.67,13.61-6,3.9.39,11.56,4.11,11.34-4.63-.16-6.5-4.46-11.25-11.78-11.75-5.25-.35-10.5-.62-18.08-1.06,13.91-10.37,26.59-16.49,40.63-20.15,16.28-4.25,27.11,4.21,36,16.37,5.07-5.58.15-12.87,6.38-16.1,13.21,10.54,15.13,16.27,11,40.21-1.51,8.75.13,11.69,9,9,1.9-.58,4.55-1.95,6.41,1.3,1,3.95-6.4,8.55-.72,12.12,4.18,2.62,7.7-1.88,11-4.38,8.77-6.78,12.68-1.61,14.68,6.33,1,4,.4,8.4.52,12.62l-11.63,12.52c9.06,2.91,14.1.05,17.7-6.55,17.57-17.88,22.38-46.24,10.18-65.06-4.15-6.38-10.89-8.43-18.11-3.18-6.67,4.85-5.06,10.56-1,15.55,3.34,4.1,8,7.14,12.92,11.4-12.66,3.93-21.73.45-28.55-9.24-6-8.59-6.34-33-.79-40.34,13.33-17.55,52.64-15.51,66.2,1.93,12,15.38,10.45,33,12.31,51.89,9.93-9,12.79-20,14-30.76,2.71-23.79-.64-28.41-23.12-36.69-3.14-1.16-4.74-2.64-4.7-5.9,7.12-5,15-8.39,25.69-10.09-13.51-9.43-21.67,1.45-31.13,3.81-.34-6-.68-11.95-1.07-18.74l-21.69,9.1c-.84-7.15-2.45-13.8,6.19-16.7,9.88-3.32,16.21-9,12.88-21.65,5.19,3.36,9.2,5.08,12,8,5,5,11.92,6.91,16.64,4,7-4.29-5.15-7.28-3-12.64.53-1.34-1-3.52-1.6-5.28-6.9-19-5.6-20.85,10.85-18.06,7.14-2.92-5.21-17.71,9.23-13.52,6,1.76,9.14,2.06,14.48-.61,4.23-2.1,14.21-3.9,10,5.92-6.48,15-.83,16.76,11.9,15.07,2.54-.34,5.3,1,9.76,1.85-7.66,9.3-14.15,17.64-21.19,25.49-2.37,2.65-5.21,5.33-2.9,8.25,3.63,4.59,5.1-1.1,7.3-2.63,18.23-12.63,54.09-4,61.94,16.12,5.42,13.88,12.41,25,27.66,29.57-9.37.74-18.45,4-26.64-1.73-4-2.83-5.9-.47-7.88,2.43-7.86,11.52-16.91,6.25-30,2.32,7.28-2.35,11.06-2.08,14.29-4.47,5.64-4.17,10.55-8.68,8.63-16.08-1.4-5.42-5.08-9.91-11.43-10.83-7-1-11.69-.06-11.6,9,0,3.51-5.24,3-8.39,3.24-5.18.37-10.15.62-14.55,4.27-2.6,2.17-6.08,3.67-4.69,7.53,1.32,3.68,4.64,1.56,7.28,1.36,3.91-.3,8.48-2.88,11.21,3-2.47,2.66-5.36,5.15-7.44,8.19-1.78,2.61-3.74,5.89-1.53,9.14,1.85,2.73,4.87,1.87,7.73,1.59,3.84-.38,9.05-3.54,11.07,1.63,1.69,4.33-3.14,7.37-5.67,10.6a82.73,82.73,0,0,1-5.7,6c-6.82,4.73-13.61,9.5-20.47,14.17-5.34,3.62-6,9-2.56,13.27,4.74,5.83,6.79-1.57,9.28-3.62,7.85-6.43,15.19-13.49,22.72-20.3,4.2-1.87,8.23-4.68,12.62-5.44,21.38-3.69,44.34-.64,62.79-16.4,2.63-2.25,8.24-.83,12.41-1.5,12.4-2,12.43,3.24,5.92,11.64,7.43,1.92,13.76,3.63,20.13,5.18,7,1.7,11.68,3.77,2.71,9.89-10.64,7.25-4.66,11.23,3.33,13.29,7.12,1.83,12.8,5.73,13.35,12.39.57,7-9.46.95-11.53,6.4,0,.65-.2,1.31,0,1.56a61.94,61.94,0,0,0,5.78,5.79c21.66,17.51,35.57,40.69,38.24,67.58,4.88,49.11-2.39,95.78-42.37,131-9.12,8-13.66,18-16.94,29.45-2,7,.8,9.31,5.92,11.29,3,1.16,8.75-8.26,9.38,2.49.47,8.11-4.09,11.84-11.32,13.14-3.9.69-8.27-1.28-12,2,2.58,7.2,8.19,10.73,14.89,13-2.75,5-7.41,6.34-11.56,8.4-3.19,1.59-7.93,1.27-8.49,6.17-.57,5.07,3.45,7.61,6.81,10,11.41,7.94,11.69,17-1.55,21.65-20.42,7.2-45.78,8-55-18.41-2.94-8.43-6.59-9.49-13-5.54-19.75,12.21-30.75,29.83-24.45,51.34,1.72,5.85,7.68,14.8-6.94,15.57-3.19.17-3.89,12.24-12.54,12.35.24,1.82,0,3.89.82,5.41,2.38,4.48,4.49,9,8.14,12.91,13.49,14.48,13.27,14.66-6.38,20.08-.79.21-1.42,1-2.35,1.74,1.29,3.4,3.71,6.85,3.72,10.3,0,10.71,7.6,16.85,13.65,23.65,5.68,6.4,10.73,5.39,15.43-1.65,2.49-4.06-6.21-7.79-1.14-10.88,4.6-2.79,7,3.44,10,5.73,6.64,5,9.28,12.5,8.69,21.77,12.11-3.66,12.3-13.48,12.58-21.51.34-9.66-7.13-15.56-15-20.23-6.35-3.77-10.22.26-13.35,5.57-3.43-5.32-1-10-1.54-14.48,6.75-5.08,17.8-6.59,6.7-20.16-7.45-9.1,6.76-17.84,12.22-23.84,4.94-5.43,6.28,6.9,9.91,10,5.6,4.77,7.69,11.08,11.43,19.14,1.71-6.47,2.71-10.4,3.8-14.31,7.15-25.78,16.23-32.81,42.66-33.08,3.29,0,6.59-.06,9.88,0,21.1.4,34.25,12.53,35.61,33.57.79,12.28-5.13,22.55-15.54,27.54-7.14,3.41-17.27,4.64-23.5-5.24,7.23-2.24,15-2,20.57-10.65-12.49-1.06-22.82-2.55-11.94-17.61,3.86-5.35-2.17-12.44-7.11-15-6.05-3.19-14.12-3.32-20,1.07-2.62,1.94-6.94,8-2.77,11,9.64,6.76,8.49,11.5-.32,17.43-3,2-3.62,5.67.25,8.1,2.57,1.61,3.29,3.58.92,5.38-13.45,10.24-3.45,12.28,5,15.57,3.17,1.23,10.34,2.79,4.69,8.29-7.52,7.32-1.5,10.48,4.37,14.28-10.57,4.63-19.89,8.59-29.09,12.82-2.44,1.12-5.46,2.66-4.58,6.18,1.1,4.37,4.6,2.34,6.85,1.62,14.57-4.67,21.84,3.3,27.18,15.12,1.11,2.47,4,4.86,2,7.53s-5.81,2.45-9.08,2.23c-5.73-.39-11.27-5.07-16.16-1.78,6.24,7.2,12.44,14.45,18.75,21.61,2.48,2.81,2.58,6.17,1.6,9.25-1.57,4.9-5.51,1.82-8.39,1.71-8.69-.34-16.38-4.14-23.74-8.2-4.56-2.52-9.75-7.09-13.54-2.51-4.51,5.45,1.47,8.41,5.86,11.47,2.36,1.64,5.21,5.34,3.78,8.5-1.58,3.49-5.8,1.83-9,1.92C1357.5,792.72,1349.34,786.64,1340.88,781Zm33.67-378.57-.22-.05c-9.29-.69-5.91,7.08-7.64,11.44-1,6.76-5.21,10.82-11.38,13.07-5.65,2.07-11.54,4.41-10-5.9.47-3,0-5.9-3.3-6.9s-4.72,2.15-6.73,4c-4.74,4.41-6.14,9.88-3.15,15.28,3.37,6.08,9,9.6,16.44,8.07,17.67-3.66,34.29-9.39,45.8-24.58,12.86-9.09,18.59-22.41,22-37.11,8.59-43.85-20.25-62.79-55.1-76.94-6.48-2.63-13.18-2.92-18.15,5.31-4.27,7.06-12.85,4-19.47,3.66-14.31-.65-25.47,1.56-24.18,19.65.35,5-5,2.84-6.75,5.45-2.22,3.34-9.86,4.74-4,10.73,4.56,4.64,9.63,5.77,14.4-.18q10.49-13.05,21.11-26a23.48,23.48,0,0,1,3.89-3.15c4.58,1.86,2.91,5.15,2.45,7.52-1.66,8.72,1.35,10.7,8.89,6.61,4.21-2.28,8.46-4,13.38-3.5,3,.3,6.15.71,5.07,4.7-3.54,13.15,3.92,7.75,8.13,4.43,8.31-6.56,12.31-4.89,11.19,5.4-1.63,15,10.82,12.28,19.27,15.58-1.13,6.42-7.41,9.34-9,15.23-.93,3.55-6.84,6.22-2.54,10.65,3.32,3.41,7.53,1.95,11.78.38,2.8-1,4.91-5.07,8.77-2.74-2.94,12.94-6.62,25.25-22.76,27.1l-2.56-1.62-2.72-3.19.15.15A2.69,2.69,0,0,0,1374.55,402.45Zm-182.42-45.17c-8.88-2.28-14.58,1-13,11.79.64,4.18,2.83,9.17-5.21,10.19-14.81,1.87-14.74,2.36-7.3,16-18.14,4.2-18.57,5.19-14.57,32.36,5.55-4.7,11.8-9.95,18-15.25,7.35-6.28,15.28-10.79,25.51-9.89,5.09.45,9.61-.25,13.88-4.57s10.51-6.37,17-3.83c5.25,2.07,10.53,3.61,19.88,2.92C1231.37,376.48,1214.47,363,1192.13,357.28Zm-69.53-60c-.26,2.57.18,6.3,1.83,7.7,2.1,1.79,5.2-.26,7.67-1.72,9.94-5.84,6.89-16.07,9.46-26.65C1132.81,283.06,1123.67,286.45,1122.6,297.23Z" transform="translate(-15.49 -85.06)"/><path class="cls-1" d="M992.76,322.87c-4.85-19.89-14-27.33-34.09-27.61a55.67,55.67,0,0,0-6.06,3.24c-5.24,3.67-4.71,10.68-8.57,15.2,5.23,3.59,8.76,9.81,16.32,9.75,5.36,0,12.59-2,14.28,5.24,1.74,7.49,2.94,15.6-3,22.65-4.54,5.43-12.72,6.94-14,16.34-.84,6.31-6.37,12-9.79,18,3.86,3.84,7.15-.82,10.6-.13,3.27-2.9,6.75-5.42,11.18-6.23L992,356.85C990.93,345.5,998.51,334.33,992.76,322.87Z" transform="translate(-15.49 -85.06)"/><path class="cls-1" d="M1254.25,911.67l-1.91,1.43,1.72.95.3-2.29Z" transform="translate(-15.49 -85.06)"/><path class="cls-1" d="M1384.54,402.45l3.15,2.57A2.69,2.69,0,0,0,1384.54,402.45Z" transform="translate(-15.49 -85.06)"/><path class="cls-1" d="M1415.4,382.72l2.22-.9-2.21-2.65C1415.41,380.35,1415.41,381.53,1415.4,382.72Z" transform="translate(-15.49 -85.06)"/><path class="cls-1" d="M1117.11,600.4c-28.58,4-45.92-7.44-51.78-39.17-3.22,6.16-4,7.23-4.38,8.43-5.93,19.69-15.63,34.63-39.53,33.23-3.55-.2-11.92-.29-4.91,7.45a105.93,105.93,0,0,0,15.35,14.46c6.84,5,5.06,11.52,4.48,17.88-.63,6.93-1.78,13.82-3.4,25.86,22.19-18.79,42.91-22.09,64-1.48,2.4-15.27-6.45-26.34-3.26-37.27C1096.9,618.69,1110,613.79,1117.11,600.4Z" transform="translate(-15.49 -85.06)"/><path class="cls-1" d="M1059.22,969c11.73,13.57,12.92,17.51,9.74,32.87-2.38,11.49-2.4,21.11,8.75,29.62,6.42,4.9,13.08,11.53,16.16,20.31,2,5.58,4,11-.63,15.67s-10.5,3.36-15.71.78c-10-5-19.66-10.72-27.35-19-5.91-6.37-11.13-8.59-20.23-4.24-13.28,6.35-26.26.54-35.25-13.15,4.14-3.5,9.36-3.67,14.31-4.75,4-.88,8.83-1.18,8-7.41,2.2.47,6.22,1.64,6.35,1.31,5.31-13.67,20-18.82,27.48-30.38Zm-21.7,58.07c2.3-5.55,7.84-7.87,13-10.3,5.61-2.65,9.3-6.79,12.81-15.53-20.4,10.2-36.26,20.34-46.31,37.65l-1.12,1.29,1.36-1.05C1026.17,1038.76,1033.68,1036.38,1037.52,1027.06Z" transform="translate(-15.49 -85.06)"/><path class="cls-1" d="M1017.24,1039.12c8.93-.36,16.44-2.74,20.28-12.06,2.3-5.55,7.84-7.87,13-10.3,5.61-2.65,9.3-6.79,12.81-15.53-20.4,10.2-36.26,20.34-46.31,37.65Z" transform="translate(-15.49 -85.06)"/><path class="cls-1" d="M1030.65,1038.88l-1.12,1.29,1.36-1.05Z" transform="translate(-15.49 -85.06)"/><path class="cls-1" d="M1214.62,567.22c6.14-4.85,9.35-6.4,1.06-13.81-35.21-31.49-78.21-46.64-122-60-32.41-9.92-66.17-13.74-99.89-16.64-6.8-.58-10-4.09-12.46-9.45-9.29-20.56-16-41.84-18.19-64.42-6.22-4.54-3.27-11.54-4.68-17.37-3.45-.69-6.74,4-10.6.13,3.42-6,9-11.65,9.79-18,1.26-9.4,9.44-10.91,14-16.34,5.9-7,4.7-15.16,3-22.65-1.69-7.26-8.92-5.28-14.28-5.24-7.56.06-11.09-6.17-16.32-9.75,3.86-4.52,3.33-11.53,8.57-15.2a55.67,55.67,0,0,1,6.06-3.24,8,8,0,0,1-1.68-8.68c-6.88-2.9-13.74-5.7-19.38-10.95-3.8-3.53-7.61-5.54-10.33,1.92-1.46,4-11.28,8.26-20.27,10.24-9-2-18.81-6.22-20.27-10.24-2.72-7.46-6.53-5.45-10.33-1.92-5.64,5.25-12.5,8.05-19.38,10.95a8,8,0,0,1-1.68,8.68,56.77,56.77,0,0,1,6.07,3.24c5.23,3.67,4.7,10.68,8.56,15.2-5.23,3.58-8.76,9.81-16.32,9.75-5.36,0-12.59-2-14.28,5.24-1.74,7.49-2.94,15.6,3,22.65,4.54,5.43,12.72,6.94,14,16.34.84,6.31,6.37,12,9.79,18-3.86,3.84-7.15-.82-10.6-.13-1.41,5.83,1.54,12.83-4.68,17.37-2.14,22.58-8.9,43.86-18.19,64.42-2.43,5.36-5.66,8.87-12.46,9.45-33.72,2.9-67.48,6.72-99.89,16.64-43.74,13.38-86.74,28.53-121.95,60-8.29,7.41-5.08,9,1.06,13.81,13.76,10.87,26.31,24.32,29,41.55,4.85,30.64,5.79,61.75-13.61,89.14-3.58,5.06-2.51,9.49.69,14.24,20,29.74,33.78,61.79,38.2,97.79a205.1,205.1,0,0,1-3.79,72.86C641.21,919.49,623.15,952,600,981.45c-5.62,7.15-2.4,9.8,1.58,14.2,22.23,24.49,42.82,49.5,57.82,79.94,14,28.46,37.15,51.68,68.1,63.84,40.31,15.83,82.14,28.07,120,49.67,18.63,10.63,37.69,21.12,44.28,44.32,2.33,8.21,9.22,6.25,15.21,6,6,.28,12.89,2.24,15.22-6,6.58-23.2,25.64-33.69,44.27-44.32,37.88-21.6,79.7-33.84,120-49.67,31-12.16,54.06-35.38,68.1-63.84,15-30.44,35.59-55.45,57.82-79.94,4-4.4,7.2-7,1.58-14.2-23.14-29.44-41.2-62-49.91-98.65a204.87,204.87,0,0,1-3.78-72.86c4.41-36,18.19-68.05,38.19-97.79,3.2-4.75,4.27-9.18.69-14.24-19.4-27.39-18.46-58.5-13.61-89.14C1188.31,591.54,1200.86,578.09,1214.62,567.22ZM899.71,331.64q2.32,0,4.65,0v.12c.5,0,1-.05,1.49-.06l1.16,0,1.16,0c.51,0,1,0,1.49.06v-.12q2.33,0,4.65,0c21.42,0,29.07,9.53,24.36,30.22-2.32,10.17-14.18,17.47-29,18v-.19c-.87.09-1.76.15-2.65.19s-1.78-.1-2.65-.19v.19c-14.83-.52-26.69-7.82-29-18C870.64,341.17,878.29,331.67,899.71,331.64Zm-4.83,568c.72-6.13,2.56-11.83,7.82-16.25,5.46-4.58,3.8-7.93-.16-12.7L911,878.2c.1-.15.19-.31.3-.47v.74l-.31-.27a4.11,4.11,0,0,0-.59,1.67l-13.33,12.48c-1.09,1.32-.5,2.59,1,3.83A16.93,16.93,0,0,0,894.88,899.59Zm285.2-341.39c-20.95,41.64-25.38,84.84-8.32,129.19,2.78,7.21,4.14,13.93-1.57,21.07-5.46,6.82-9.77,14.66-13.92,22.41-17.43,32.54-19.6,68.39-18.91,103.86,1,52.41,15.61,101.5,45.06,145.49,5.51,8.22,5.44,14.33-1.79,22.18-15.77,17.12-30.7,35.4-39.89,56.92-13.62,31.89-36.85,53.11-68.16,66-16.75,6.9-34.59,11.25-51,18.75-11.11,5.08-18.48,2.65-27.3-4.18-11.8-9.14-24.8-16.7-37.15-25.13-11.91-8.14-20.15-18.16-22.65-33.48-3-18.13-2.55-36.58-6.06-54.46-5.58-28.38-4.53-57.21-7.69-87.2,10.91,4.89,37.25-3.52,48-2.93-1.69-2-3.41-4-5.14-5.9,11.51-5.37,32.78-14,37.58-14.09,10.13-.07,21.83,2,22.5-13.94,0-1.21,3.68-2.2,5.56-3.44,2.3-1.51,6.67-3.87,6.41-4.67-3.59-11.23,5.52-21,4.79-29.71-.81-9.74.82-21.62-5.9-30.75-3.24-4.41-.68-8.07.88-11.82,11.69-28.24,7.81-41.42-20-51.51-16-5.81-21.72-13.55-18.35-29.58,1.08-5.13-1-9.1-6-12.77-23-16.92-50.25-23.65-77.15-25.36-.42,0-.85,0-1.48,3.5l-.11-3.6-2.14.1c-26.9,1.71-54.11,8.44-77.15,25.36-5,3.67-7,7.64-6,12.77,3.37,16-2.35,23.77-18.35,29.58-27.85,10.09-31.73,23.27-20,51.51,1.55,3.75,4.12,7.41.87,11.82-6.71,9.13-5.08,21-5.9,30.75-.72,8.69,8.39,18.48,4.8,29.71-.26.8,4.11,3.16,6.41,4.67,1.87,1.24,5.5,2.23,5.56,3.44.67,16,12.37,13.87,22.5,13.94,4.27,0,30.37,6.89,47.76,12.19-3.18,3.53-6.35,7.07-9.42,10.69,10.74-.59,21.19,4.93,32.1,0-3.16,30-2.11,58.82-7.69,87.2-3.51,17.88-3.11,36.33-6.06,54.46-2.5,15.32-10.73,25.34-22.65,33.48-12.35,8.43-25.35,16-37.15,25.13-8.82,6.83-16.19,9.26-27.3,4.18-16.44-7.5-34.28-11.85-51-18.75-31.32-12.89-54.55-34.11-68.17-66-9.19-21.52-24.12-39.8-39.89-56.92-7.23-7.85-7.3-14-1.79-22.18,29.45-44,44-93.08,45.06-145.49.7-35.47-1.48-71.32-18.91-103.86-4.15-7.75-8.46-15.59-13.92-22.41-5.71-7.14-4.35-13.86-1.57-21.07,17.06-44.35,12.63-87.55-8.32-129.19-3.9-7.73-4.84-9.71,3.44-14.18,48.78-26.29,101.08-39.41,155.47-48.77,27.87-4.8,47.62,7.11,69.88,16.6,15,6.4,29.82,9.64,44.28,9.42,14.46.22,29.25-3,44.28-9.42,22.26-9.49,42-21.4,69.88-16.6,54.39,9.36,106.69,22.48,155.47,48.77C1184.92,548.49,1184,550.47,1180.08,558.2Z" transform="translate(-15.49 -85.06)"/><path class="cls-1" d="M1030,975.21c-19.36-17-39.87-32.71-57.5-51.63-15.58-13.29-31.09-26.65-46.77-39.81-5.45-4.58-3.79-7.93.17-12.71,10.33-12.43,22.54-23.47,29.52-38.48l-3.65-.4c-11.28,9.15-23.2,17.63-33.63,27.67-3.23,3.1-5.88,4.7-8.47,5.09-2.59-.39-5.25-2-8.47-5.09-10.43-10-22.35-18.52-33.63-27.67l-3.65.4c7,15,19.19,26,29.52,38.48,4,4.78,5.62,8.13.16,12.71-15.67,13.16-31.18,26.52-46.76,39.81-17.63,18.92-38.14,34.64-57.51,51.63-6.44,5.65-11.36,13.74-20.85,15.4,7.51,11.56,22.17,16.71,27.48,30.38.13.33,4.15-.84,6.35-1.31l67.88-80.1c11.09-13.09,23.44-25.09,33.2-39.34,1.63-2.4,3.86-4.71,6.28-5.43,2.41.72,4.65,3,6.28,5.43,9.75,14.25,22.11,26.25,33.2,39.34l67.88,80.1c2.2.47,6.22,1.64,6.35,1.31,5.31-13.67,20-18.82,27.48-30.38C1041.36,989,1036.44,980.86,1030,975.21Z" transform="translate(-15.49 -85.06)"/><rect class="cls-1" x="869.1" y="367.45" width="51.34" height="12.22"/></svg>
