<?xml version="1.0" encoding="UTF-8" standalone="no"?>
<!DOCTYPE svg PUBLIC "-//W3C//DTD SVG 1.1//EN" "http://www.w3.org/Graphics/SVG/1.1/DTD/svg11.dtd">
<svg width="100%" height="100%" viewBox="0 0 760 265" version="1.1" xmlns="http://www.w3.org/2000/svg" xmlns:xlink="http://www.w3.org/1999/xlink" xml:space="preserve" xmlns:serif="http://www.serif.com/" style="fill-rule:evenodd;clip-rule:evenodd;stroke-linejoin:round;stroke-miterlimit:2;">
    <g transform="matrix(1,0,0,1,0,-5.088938)">
        <g id="LogoBackgroundDark">
            <path d="M0,216.5L0,119.5C1.535,119.163 2.753,118.896 17.264,110.118C59.907,84.323 61.591,85.073 61.672,81.505C61.749,78.065 62.315,52.983 61.531,38.491C61.512,38.146 61.293,36.731 57.259,39.092C54.619,40.637 16.763,62.475 14.685,63.803C10.84,66.26 12.788,67.502 12.461,97.499C12.425,100.738 3.949,104.378 -0,106.5L0,57.5C14.883,49.715 72.315,14.456 73.405,14.954C74.946,15.658 73.929,38.608 74.205,70.504C74.208,70.925 74.249,75.662 75.501,75.604C75.582,75.6 84.251,71.362 85.041,69.38C85.847,67.356 84.35,9.686 85.926,7.902C89.898,3.407 93.682,5.563 94.279,5.903C98.811,8.487 97.811,9.923 97.861,26.501C97.987,68.694 97.138,69.468 99.65,71.264C100.167,71.634 182.099,119.31 182.667,120.381C183.348,121.666 183.105,121.717 183.154,198.501C183.163,212.808 183.644,215.655 181.308,217.204C179.233,218.58 110.588,259.379 110.471,259.406C107.592,260.073 108.807,257.741 108.813,222.501C108.814,216.45 110.671,217.051 122.268,210.114C133.281,203.527 133.379,203.812 144.276,197.117C147.372,195.215 146.448,194.227 146.654,147.501C146.802,113.785 146.336,113.604 145.33,112.729C144.613,112.105 94.409,82.458 92.406,81.785C90.977,81.304 90.72,81.475 28.796,117.999C12.617,127.542 12.461,127.896 12.407,129.497C12.388,130.066 12.291,198.388 12.488,206.5C12.579,210.203 14.077,209.664 54.77,234.043C56.636,235.161 61.575,238.971 61.647,235.515C61.804,228.05 63.694,226.585 57.35,222.744C55.084,221.372 55.011,221.601 28.792,206.004C21.542,201.691 23.734,199.941 23.717,191.497C23.713,189.06 23.665,136.275 23.768,135.543C24.063,133.443 35.476,126.557 36.279,128.583C36.623,129.451 36.323,176.345 36.296,180.498C36.219,192.599 35.739,195.406 38.662,197.24C53.192,206.354 73.362,216.551 73.971,219.394C74.159,220.272 74.075,220.264 74.173,257.486C74.182,261.253 70.697,258.211 63.313,253.808C12.313,223.392 5.13,219.371 0,216.5ZM127.455,234.422C130.829,232.451 166.708,211.501 169.37,209.336C170.94,208.059 170.392,207.548 170.423,135.499C170.425,129.22 171.665,128.055 166.274,124.894C161.542,122.119 158.811,119.77 159.06,124.502C159.172,126.635 159.183,193.865 159.069,200.497C159.01,203.936 155.463,204.943 145.68,210.789C136.191,216.46 136.223,216.343 126.749,221.92C119.809,226.004 121.25,227.49 121.402,235.512C121.463,238.744 125.411,235.705 127.455,234.422Z" style="fill:rgb(178,139,59);"/>
            <path d="M104.337,205.773C104.804,206.082 112.869,211.411 108.498,211.403C106.765,211.4 95.629,203.298 101.2,211.648C102.493,213.586 100.862,215.152 98.756,213.203C97.56,212.096 93.536,206.996 93.364,210.47C93.33,211.165 92.724,223.405 90.35,218.617C88.491,214.869 90.663,205.787 86.252,211.269C82.194,216.313 81.142,213.018 81.267,212.443C81.312,212.234 84.51,208.551 83.333,207.855C82.522,207.375 72.491,212.946 73.814,209.579C75.605,205.02 86.614,206.069 87.697,192.516C87.915,189.793 90.336,159.504 87.563,158.37C81.272,155.8 77.055,165.937 66.731,161.027C66.113,160.733 66.817,159.825 59.611,156.277C53.891,153.461 52.256,145.364 53.346,141.463C54.576,137.057 53.669,137.067 53.167,132.547C52.236,124.168 57.954,119.201 60.692,117.856C64.012,116.224 64.679,116.715 66.303,112.422C70.286,101.891 81.358,104.275 82.567,103.653C87.562,101.082 91.25,97.574 100.58,103.373C102.694,104.687 112.752,101.895 116.887,112.348C119.801,119.715 123.998,116.048 128.006,122.809C132.962,131.17 127.652,133.136 129.865,140.4C133.534,152.443 123.031,156.465 121.648,156.995C120.406,157.471 113.429,166.613 103.482,160.528C101.575,159.362 101.019,157.259 95.408,158.233C93.808,158.51 93.54,159.138 94.421,178.503C95.346,198.836 95.136,200.205 104.337,205.773ZM82.505,152.09C85.854,152.183 86.549,152.919 86.615,151.536C86.658,150.628 79.142,140.737 76.461,141.28C76.15,141.343 64.385,146.966 66.493,141.496C67.639,138.523 75.707,138.411 73.002,134.823C72.598,134.286 68.379,128.687 68.724,127.588C70.871,120.748 89.56,151.453 89.437,144.488C89.233,132.892 88.92,132.465 88.31,131.632C84.461,126.38 75.348,119.273 80.555,117.867C82.758,117.271 88.944,126.942 89.199,123.42C89.3,122.022 87.867,111.961 91.529,112.214C95.564,112.494 91.096,128.041 96.401,122.401C96.817,121.959 101.111,117.395 102.432,117.811C108.848,119.835 93.918,127.724 93.749,134.508C93.551,142.397 93.153,148.265 95.701,144.742C95.947,144.401 109.703,128.046 110.921,126.968C112.852,125.258 116.006,126.538 113.238,130.31C112.302,131.585 107.937,136.256 109.738,137.152C115.939,140.235 117.666,139.32 117.182,142.451C116.489,146.943 106.782,139.541 104.502,141.503C100.332,145.094 97.105,149.733 96.556,150.523C94.446,153.558 101.08,150.213 104.594,153.399C110.504,158.755 113.799,154.573 119.351,151.255C128.312,145.899 119.998,141.41 122.764,134.611C126.369,125.753 117.477,122.15 116.411,121.718C112.527,120.144 113.382,119.243 111.698,115.407C108.578,108.301 101.002,111.873 98.739,110.182C88.5,102.533 88.025,110.317 83.538,110.998C78.414,111.776 74.391,107.53 70.829,119.593C69.865,122.861 57.603,122.634 59.963,133.379C60.145,134.208 61.906,137.004 61.408,138.473C58.175,147.987 60.295,148.71 68.574,154.395C74.243,158.288 78.321,152.342 80.448,152.14C81.131,152.075 81.822,152.155 82.505,152.09Z" style="fill:rgb(180,143,64);"/>
            <path d="M370.521,156.518C359.666,174.237 411.123,153.183 415.611,177.481C421.372,208.677 339.492,209.235 348.409,185.465C351.806,176.411 366.043,177.997 357.392,173.679C352.131,171.052 349.114,161.467 362.706,155.956C362.863,155.893 368.639,154.814 363.459,152.575C344.283,144.285 352.169,111.025 388.423,116.899C394.454,117.876 394.566,119.812 402.492,119.88C406.081,119.911 414.548,119.142 414.821,121.432C415.462,126.799 412.952,125.746 407.554,125.874C403.91,125.961 412.77,136.116 405.248,146.322C396.086,158.752 376.143,155.563 373.543,155.147C371.771,154.864 371.98,155.495 370.521,156.518ZM365.279,179.335C351.937,201.029 408.066,198.332 403.702,183.438C401.767,176.83 394.528,178.977 368.504,177.285C366.395,177.148 366.674,177.798 365.279,179.335ZM372.847,126.675C364.181,149.131 389.821,161.017 391.506,138.5C392.345,127.287 382.282,113.925 372.847,126.675Z" style="fill:white;"/>
            <path d="M283.128,143.478C287.051,104.44 343.883,110.991 347.08,141.561C350.397,173.273 311.636,184.559 292.715,167.265C281.739,157.232 283.171,144.739 283.128,143.478ZM305.362,162.582C313.811,174.919 330.045,170.978 328.752,143.488C327.472,116.29 303.95,115.412 301.446,140.496C300.274,152.244 304.57,160.972 305.362,162.582Z" style="fill:white;"/>
            <path d="M495.326,172.787C494.679,172.337 490.331,169.319 488.86,165.36C480.659,143.289 520.408,138.014 521.574,137.725C525.529,136.744 524.666,121.126 513.524,121.785C505.343,122.268 503.784,131.254 503.675,131.563C501.918,136.538 493.749,134.846 491.754,131.37C484.521,118.769 518.032,112.097 532.312,118.892C551.291,127.922 534.471,167.911 545.464,167.196C552.856,166.715 545.217,174.715 535.48,175.071C525.73,175.427 523.964,168.83 523.557,168.432C521.295,166.219 511.94,181.657 495.326,172.787ZM516.628,144.826C515.157,145.51 499.983,152.575 507.914,163.138C511.556,167.989 523.085,165.25 523.344,160.485C524.236,144.081 523.942,143.604 522.607,143.255C521.082,142.857 521.143,143.347 516.628,144.826Z" style="fill:white;"/>
            <path d="M439.586,116.877C443.026,116.6 442.441,118.068 442.531,121.495C442.652,126.156 446.869,117.911 458.524,116.699C494.852,112.923 472.931,163.533 483.661,170.185C483.908,170.339 487.451,172.535 484.61,173.697C482.155,174.701 461.464,173.93 459.453,173.855C456.532,173.746 456.868,171.877 459.421,170.345C461.75,168.948 463.082,168.148 462.196,136.509C461.75,120.602 443.939,126.629 442.618,131.532C441.982,133.891 442.356,162.771 442.477,164.502C442.875,170.215 448.47,170.137 448.284,172.476C448.134,174.377 447.115,174.11 424.498,174.019C414.94,173.981 422.991,169.722 423.664,168.613C425.288,165.935 425.377,165.788 424.891,129.486C424.835,125.292 421.762,125.28 420.76,124.244C417.517,120.892 424.093,120.552 439.586,116.877Z" style="fill:white;"/>
            <path d="M603.324,131.406C603.904,130.567 604.334,129.631 604.914,128.792C620.468,106.298 658.541,117.378 658.302,139.507C658.237,145.546 654.675,142.622 619.491,143.365C614.469,143.471 619.173,158.492 626.709,163.165C640.583,171.768 653.25,160.398 653.407,160.307C654.793,159.502 658.54,161.62 656.171,164.206C632.526,190.003 586.36,168.993 603.324,131.406ZM622.5,137.254C635.85,137.233 640.422,138.177 640.192,134.516C639.262,119.705 620.538,118.339 617.784,134.54C617.193,138.011 619.018,137.125 622.5,137.254Z" style="fill:white;"/>
            <path d="M251.118,162.478C251.184,149.443 251.14,149.516 251.14,136.501C251.141,126.502 251.141,116.504 251.141,106.505C251.141,102.116 248.393,102.876 237.482,103.12C225.561,103.386 228.24,114.948 223.824,112.016C223.152,111.57 223.461,105.101 223.489,104.5C223.776,98.492 221.467,95.569 227.5,95.516C232.861,95.468 288.296,94.976 294.51,95.382C297.074,95.55 296.728,99.623 296.824,109.502C296.854,112.531 294.003,112.038 292.932,110.245C288.413,102.676 286.744,102.924 271.484,103.092C268.266,103.128 268.895,105.586 268.898,121.499C268.905,165.739 267.74,168.762 275.499,170.507C279.466,171.4 278.269,174.131 275.5,174.115C245.966,173.941 243.117,174.445 242.979,172.482C242.69,168.371 249.807,172.317 251.118,162.478Z" style="fill:white;"/>
            <path d="M127.71,40.136C126.424,39.396 126.511,39.416 124.237,37.973C121.586,36.29 121.799,38.395 121.838,41.505C121.865,43.751 122.178,68.898 121.621,69.587C120.758,70.653 115.541,67.279 113.661,66.221C107.143,62.553 108.969,61.021 108.94,53.495C108.802,16.908 107.55,14.513 110.548,15.169C111.783,15.44 148.41,37.236 151.685,39.185C175.724,53.49 182.622,56.358 183.104,59.539C183.174,60.001 183.212,105.275 183.166,105.366C182.71,106.258 182.105,106.466 171.86,100.011C169.856,98.748 171.011,88.492 170.516,67.499C170.443,64.407 169.474,64.401 127.71,40.136Z" style="fill:rgb(172,130,49);"/>
            <path d="M670.501,174.035C663.914,173.945 663.955,173.97 663.387,173.938C661.86,173.851 661.638,171.592 662.793,170.899C668.426,167.516 667.755,166.444 667.763,156.501C667.81,102.361 667.671,101.904 666.145,100.96C665.288,100.43 664.286,100.129 663.49,99.509C662.818,98.986 662.731,96.939 664.507,96.522C666.17,96.131 684.586,91.805 685.486,92.522C687.02,93.745 685.783,148.785 686.283,164.516C686.423,168.917 690.686,170.792 690.995,171.11C694.636,174.854 685.782,173.893 670.501,174.035Z" style="fill:white;"/>
            <path d="M699.506,174.076C696.579,173.731 694.938,173.054 697.105,171.114C697.873,170.426 700.542,169.674 701.204,166.432C702.18,161.656 702.041,161.657 701.545,105.499C701.491,99.33 695.586,101.248 696.876,97.651C697.326,96.397 718.353,92.449 718.501,92.499C720.543,93.185 718.744,153.218 719.4,163.506C719.79,169.608 724.025,170.382 724.794,171.302C727.597,174.657 719.764,174.017 699.506,174.076Z" style="fill:white;"/>
            <path d="M573.632,127.321C573.924,127.384 574.215,127.448 574.507,127.511C575.257,126.437 575.256,126.446 575.317,126.351C587.21,108.056 603.752,118.302 597.216,129.34C592.062,138.045 587.912,130.561 583.543,130.119C571.892,128.939 573.374,144.499 573.507,160.5C573.609,172.716 582.156,168.341 582.192,172.503C582.212,174.802 580.814,174.353 553.483,173.885C550.109,173.827 551.289,171.128 551.746,170.81C557.04,167.132 555.843,166.085 555.883,157.503C556.023,127.187 555.97,126.542 553.293,124.911C551.577,123.866 549.655,121.398 554.477,120.38C570.368,117.023 573.192,115.481 573.393,118.511C573.938,126.733 572.542,126.796 572.94,127.385C573.07,127.577 573.502,127.129 573.632,127.321Z" style="fill:white;"/>
            <path d="M759.999,171.5C757.89,174.642 757.306,173.966 753.498,174.009C751.82,174.029 734.183,174.231 732.521,174.049C725.975,173.335 735.135,171.066 735.588,164.506C736.52,151.009 735.753,132.293 735.638,129.495C735.422,124.219 730.774,125.291 730.766,122.5C730.76,120.777 731.582,120.856 751.547,116.83C754.261,116.282 753.562,119.871 753.587,139.5C753.622,166.179 752.413,168.386 759.999,171.5Z" style="fill:white;"/>
            <path d="M94.651,268.746C94.008,269.11 88.786,272.07 85.716,266.404C85.153,265.365 85.311,226.665 85.489,226.491C87.259,224.757 89.448,230.775 94.407,227.365C96.489,225.934 97.731,224.945 97.816,227.434C97.919,230.48 98.639,251.623 97.703,265.526C97.542,267.927 96.658,267.381 94.651,268.746Z" style="fill:rgb(167,124,41);"/>
            <path d="M493.852,213.624C483.872,232.88 459.179,213.902 472.631,201.647C480.275,194.684 497.381,198.77 493.852,213.624ZM487.855,215.667C491.089,207.682 486.722,200.098 480.541,200.813C466.766,202.407 477.946,229.165 487.855,215.667Z" style="fill:white;"/>
            <path d="M562.861,203.489C562.237,199.193 560.856,199.827 560.851,199.468C560.842,198.77 561.177,198.721 569.498,198.362C592.386,197.374 590.151,222.965 568.501,221.203C562.568,220.72 558.425,221.849 561.47,219.479C563.413,217.967 562.884,213.377 562.861,203.489ZM567.758,207.505C567.755,212.558 566.573,218.625 570.475,218.828C585.12,219.589 581.631,198.159 568.853,200.949C567.779,201.183 567.76,206.973 567.758,207.505Z" style="fill:white;"/>
            <path d="M637.502,217.502C633.096,220.876 632.862,221.198 617.57,221.257C616.015,221.263 616.118,220.363 617.303,219.378C618.344,218.513 619.599,217.471 618.481,202.501C618.332,200.515 614.235,197.955 618.482,198.338C622.121,198.665 641.806,195.929 640.854,210.525C640.638,213.834 637.904,217.031 637.502,217.502ZM633.821,215.7C637.607,208.785 634.235,200.203 625.546,200.815C622.481,201.031 623.347,207.393 623.418,215.502C623.46,220.308 629.429,220.406 633.821,215.7Z" style="fill:white;"/>
            <path d="M424.875,212.61C424.907,217.861 422.694,219.088 427.195,221.858C429.941,223.548 426.512,223.487 418.432,223.864C413.979,224.072 419.019,221.573 419.226,219.452C419.403,217.649 419.681,199.474 419.234,198.573C419.027,198.156 414.615,195.071 418.42,195.16C421.212,195.225 444.94,193.241 439.669,206.569C437.258,212.666 430.276,212.675 424.875,212.61ZM424.994,209.411C434.61,213.587 438.426,198.714 428.477,197.737C423.817,197.28 425.06,200.325 424.994,209.411Z" style="fill:white;"/>
            <path d="M451.501,209.499C451.486,210.124 450.994,209.863 450.98,210.451C450.965,211.087 451.399,210.878 451.453,211.47C451.69,214.065 448.822,216.21 453.043,219.872C455.441,221.952 441.682,222.511 444.606,219.591C445.99,218.208 446.145,218.234 446.166,215.501C446.224,208.241 446.5,201.707 445.054,200.693C443.676,199.728 443.862,198.657 445.538,198.777C453.888,199.374 460.287,197.887 462.472,202.515C464.826,207.502 459.626,210.389 459.519,210.515C458.274,211.973 463.424,217.834 465.602,219.416C469.068,221.936 461.856,222.691 458.769,219.263C453.197,213.075 453.443,210.492 453.526,209.618C454.138,209.503 460.896,208.233 456.565,202.446C456.149,201.889 449.093,197.236 451.501,209.499Z" style="fill:white;"/>
            <path d="M506.089,212.284C505.905,216.616 504.615,217.33 508.063,219.888C510.618,221.784 506.625,220.952 500.502,221.483C496.053,221.868 500.618,219.541 500.875,217.55C500.946,217 500.889,202.697 500.866,202.458C500.725,200.952 496.543,198.313 500.504,198.537C500.925,198.561 520.618,197.143 517.704,206.554C515.908,212.357 508.244,212.176 507.441,211.945C507.109,211.85 506.838,211.418 506.503,211.502C506.217,211.574 506.375,212.213 506.089,212.284ZM505.933,209.396C517.415,210.392 512.452,199.689 506.95,200.948C505.922,201.184 505.932,208.716 505.933,209.396Z" style="fill:white;"/>
            <path d="M752.673,98.39C760.849,115.749 726.411,113.027 735.36,98.408C736.855,95.965 745.93,90.507 752.673,98.39Z" style="fill:white;"/>
            <path d="M379.502,211.994C396.302,212.049 410.388,211.456 406.327,214.219C404.991,215.127 370.319,214.837 368.492,214.819C365.995,214.795 363.6,214.772 361.301,214.749C306.795,214.215 306.66,214.213 306.008,213.694C302.95,211.257 316.072,212.678 379.502,211.994Z" style="fill:rgb(170,137,71);"/>
            <path d="M604.464,218.5C603.119,214.756 602.447,214.913 598.504,214.932C593.843,214.954 591.62,215.261 593.577,219.466C594.991,222.501 584.776,221.842 588.263,219.324C590.96,217.377 596.862,202.444 598.903,198.842C600.672,195.721 600.838,199.577 608.989,216.242C610.74,219.822 615.46,221.365 611.436,221.262C610.118,221.229 608.809,220.977 607.491,220.979C604.362,220.984 601.585,222.052 603.518,219.511L604.464,218.5ZM600.648,209.439C600.532,209.156 598.834,205.001 597.862,206.818C592.965,215.975 601.312,211.524 601.315,211.486C601.381,210.772 600.582,210.154 600.648,209.439Z" style="fill:white;"/>
            <path d="M537.853,221.059C537.896,220.926 537.402,220.232 538.389,219.425C540.986,217.302 540.047,201.716 539.011,200.778C537.651,199.547 537.629,198.501 539.506,198.537C546.097,198.664 546.024,197.795 552.498,198.545C556.006,198.951 554.85,204.562 552.261,201.761C550.856,200.241 545.318,200.65 544.979,201.646C541.851,210.838 549.909,207.756 550.512,207.525C553.587,206.35 553.453,212.336 550.593,211.293C542.808,208.454 544.723,216.054 544.728,216.492C544.772,220.415 552.043,218.57 552.787,217.885C558.072,213.022 554.875,220.273 554.558,220.565C553.229,221.793 538.036,221.083 537.853,221.059Z" style="fill:white;"/>
            <path d="M650.501,221.04C645.97,221.407 646.011,221.438 645.705,221.206C644.786,220.51 646.205,219.476 646.329,219.385C647.59,218.465 647.648,214.907 647.655,214.502C647.861,201.871 647.921,201.5 645.94,200.048C645.624,199.816 644.794,198.001 647.454,198.182C659.507,199.001 661.758,196.607 662.171,200.509C662.562,204.209 657.861,199.376 653.721,200.839C652.792,201.167 649.156,211.542 658.763,206.994C659.036,206.865 660.432,206.204 660.278,210.457C660.197,212.719 658.031,210.698 656.486,210.641C649.122,210.371 653.371,218.51 653.469,218.543C658.866,220.412 663.293,214.657 663.218,217.524C663.077,222.928 654.173,221.129 650.501,221.04Z" style="fill:white;"/>
            <path d="M682.564,210.438C690.317,221.967 668.616,224.834 667.754,218.494C666.757,211.157 670.531,217.939 671.543,218.431C677.427,221.295 683.262,215.749 677.318,212.848C676.092,212.25 666.977,209.869 668.543,203.511C670.651,194.957 686.068,197.434 683.058,203.277C682.123,205.092 678.788,197.923 674.178,201.075C668.822,204.737 677.554,206.806 682.564,210.438Z" style="fill:white;"/>
            <path d="M66.659,190.191C62.529,188.46 62.738,190.457 59.423,193.417C55.712,196.731 53.072,193.385 55.981,189.923C57.577,188.024 57.736,188.24 59.361,186.395C61.138,184.376 55.775,179.477 57.869,175.739C59.423,172.964 60.017,177.423 60.509,178.494C64.418,186.995 70.738,174.917 73.259,176.792C76.75,179.389 64.143,183.686 70.811,188.258C71.113,188.465 72.625,191.838 66.659,190.191Z" style="fill:rgb(176,138,62);"/>
            <path d="M126.512,194.834C120.78,192.814 121.864,187.492 116.396,190.281C114.486,191.255 109.549,189.965 112.749,187.828C118.975,183.671 106.22,179.662 109.795,176.843C112.554,174.667 119.507,188.083 122.873,177.632C123.554,175.516 123.389,173.431 124.674,175.247C128.057,180.025 120.869,183.374 124.657,187.355C126.502,189.294 131.228,192.731 126.512,194.834Z" style="fill:rgb(177,139,63);"/>
            <path d="M49.21,71.082C42.983,75.043 49.205,76.988 48.194,79.434C46.626,83.225 44.224,73.595 38.468,78.457C32.636,83.382 37.582,74.13 36.376,72.597C35.975,72.086 28.513,67.376 33.524,67.773C37.951,68.124 39.12,68.747 40.309,64.435C42.496,56.507 42.746,66.955 45.361,67.857C47.248,68.507 56.325,66.048 49.21,71.082Z" style="fill:rgb(172,132,56);"/>
            <path d="M135.478,71.528C134.147,70.215 133.759,70.858 132.429,69.546C132.362,69.48 132.17,69.291 132.289,68.383C132.632,65.773 138.766,71.995 140.713,64.57C142.581,57.446 143.852,66.122 144.768,67.316C145.548,68.333 150.195,68.094 150.671,68.069C154.867,67.853 150.6,69.7 147.591,72.595C145.405,74.698 151.574,84.631 145.342,78.695C140.585,74.165 138.493,81.216 136.602,80.222C133.99,78.849 140.701,75.832 135.478,71.528Z" style="fill:rgb(175,137,58);"/>
            <path d="M529.857,206.5C529.882,213.63 529.264,218.523 531.515,219.487C532.406,219.868 533.109,221.568 530.482,221.336C525.273,220.874 520.071,222.338 523.995,218.85C524.691,218.231 525.924,202.781 523.319,200.644C520.893,198.654 523.898,198.816 530.493,198.544C533.823,198.407 531.044,200.636 530.905,200.748C529.85,201.595 530.276,201.842 529.857,206.5Z" style="fill:white;"/>
        </g>
    </g>
</svg>
